<svg width="448" height="272" viewBox="0 0 448 272" fill="none" xmlns="http://www.w3.org/2000/svg">
<rect width="448" height="272" fill="#2C281D"/>
<path d="M184.772 82.02C181.364 82.02 178.761 83.4873 176.962 86.422C176.205 87.7473 175.779 89.262 175.684 90.966V180C175.684 187.952 173.175 194.673 168.158 200.164C163.235 205.655 157.129 208.4 149.84 208.4V207.122C154.479 205.513 158.407 202.01 161.626 196.614C164.845 191.313 166.454 185.633 166.454 179.574V90.966C166.359 88.5047 165.413 86.422 163.614 84.718C161.91 82.9193 159.827 82.02 157.366 82.02H155.52V80.6H186.618V82.02H184.772ZM267.873 108.006C267.873 112.171 267.021 116.053 265.317 119.65C262.193 126.371 256.702 131.057 248.845 133.708C246.1 134.655 243.733 135.128 241.745 135.128C235.876 135.128 230.811 134.039 226.551 131.862V130.442C233.462 131.957 239.852 131.199 245.721 128.17C250.928 125.519 254.478 121.165 256.371 115.106C256.939 113.213 257.223 111.414 257.223 109.71C257.223 108.006 257.223 106.965 257.223 106.586C257.034 99.9593 255.282 94.7053 251.969 90.824C248.656 86.848 244.017 84.86 238.053 84.86H221.723V169.634C221.818 172.095 222.717 174.225 224.421 176.024C226.22 177.728 228.35 178.58 230.811 178.58H232.657V180H201.559V178.58H203.405C205.866 178.58 207.949 177.728 209.653 176.024C211.452 174.225 212.398 172.095 212.493 169.634V90.256C212.209 87.8893 211.215 85.9487 209.511 84.434C207.807 82.8247 205.772 82.02 203.405 82.02H201.701L201.559 80.6H238.621C247.709 80.6 254.856 83.0613 260.063 87.984C265.27 92.812 267.873 99.486 267.873 108.006Z" fill="#89925F"/>
<g style="mix-blend-mode:hard-light">
<path d="M293.544 143.168C294.611 143.168 295.645 142.976 296.648 142.592C297.672 142.229 298.632 141.739 299.528 141.12C300.424 140.523 301.245 139.851 301.992 139.104C302.76 138.357 303.421 137.6 303.976 136.832C304.637 136 305.235 135.083 305.768 134.08C306.323 133.077 306.792 132.043 307.176 130.976C307.56 129.888 307.859 128.789 308.072 127.68C308.285 126.571 308.392 125.493 308.392 124.448C308.392 123.573 308.296 122.741 308.104 121.952C307.912 121.163 307.635 120.469 307.272 119.872C306.931 119.275 306.493 118.805 305.96 118.464C305.448 118.101 304.851 117.92 304.168 117.92C303.187 117.92 302.269 118.229 301.416 118.848C300.563 119.445 299.784 120.181 299.08 121.056C298.376 121.931 297.757 122.869 297.224 123.872C296.691 124.875 296.275 125.76 295.976 126.528L294.728 129.856C294.344 131.008 293.971 132.213 293.608 133.472C293.245 134.709 292.947 135.904 292.712 137.056C292.669 137.333 292.595 137.749 292.488 138.304C292.381 138.859 292.275 139.435 292.168 140.032C292.061 140.629 291.965 141.184 291.88 141.696C291.795 142.229 291.752 142.613 291.752 142.848C291.923 142.955 292.189 143.029 292.552 143.072C292.915 143.136 293.245 143.168 293.544 143.168ZM291.752 136.48C291.752 136.459 291.752 136.448 291.752 136.448C291.773 136.448 291.784 136.437 291.784 136.416L292.168 134.88C292.424 133.749 292.776 132.469 293.224 131.04C293.672 129.611 294.184 128.181 294.76 126.752C295.336 125.301 295.976 123.947 296.68 122.688C297.405 121.408 298.173 120.363 298.984 119.552C299.752 118.784 300.531 118.133 301.32 117.6C302.109 117.067 303.08 116.8 304.232 116.8C305.107 116.8 305.896 117.024 306.6 117.472C307.304 117.899 307.901 118.496 308.392 119.264C308.968 120.181 309.341 121.195 309.512 122.304C309.704 123.413 309.757 124.544 309.672 125.696C309.587 126.848 309.395 127.979 309.096 129.088C308.819 130.197 308.509 131.2 308.168 132.096C307.443 134.059 306.376 135.936 304.968 137.728C303.581 139.499 302.024 140.971 300.296 142.144C299.912 142.379 299.464 142.624 298.952 142.88C298.44 143.157 297.885 143.403 297.288 143.616C296.712 143.851 296.115 144.032 295.496 144.16C294.877 144.309 294.259 144.384 293.64 144.384C293.128 144.384 292.712 144.331 292.392 144.224C292.093 144.139 291.795 144.085 291.496 144.064L291.048 149.28C291.027 149.472 290.995 149.76 290.952 150.144C290.931 150.549 290.909 150.976 290.888 151.424C290.888 151.872 290.877 152.299 290.856 152.704C290.835 153.109 290.813 153.429 290.792 153.664C290.749 154.048 290.717 154.421 290.696 154.784C290.696 155.168 290.675 155.499 290.632 155.776C290.611 156.075 290.547 156.309 290.44 156.48C290.355 156.651 290.216 156.736 290.024 156.736C289.853 156.736 289.683 156.693 289.512 156.608C289.427 156.288 289.373 155.733 289.352 154.944C289.352 154.155 289.363 153.312 289.384 152.416C289.405 151.52 289.427 150.656 289.448 149.824C289.491 149.013 289.512 148.405 289.512 148C289.512 147.531 289.523 147.115 289.544 146.752C289.587 146.411 289.608 146.027 289.608 145.6C289.608 145.109 289.619 144.704 289.64 144.384C289.661 144.064 289.672 143.691 289.672 143.264C289.565 143.157 289.437 143.061 289.288 142.976C289.16 142.912 289.032 142.827 288.904 142.72C288.52 142.443 288.339 142.165 288.36 141.888C288.381 141.611 288.509 141.472 288.744 141.472C288.893 141.472 289.021 141.515 289.128 141.6C289.277 141.685 289.395 141.76 289.48 141.824C289.565 141.888 289.629 141.92 289.672 141.92C289.757 141.92 289.789 141.803 289.768 141.568C289.768 141.355 289.779 140.939 289.8 140.32C289.8 140.043 289.811 139.851 289.832 139.744C289.875 139.637 289.896 139.456 289.896 139.2C289.917 138.987 289.917 138.773 289.896 138.56C289.875 138.325 289.885 138.101 289.928 137.888C289.949 137.653 289.971 137.472 289.992 137.344C290.013 137.195 290.024 136.971 290.024 136.672C290.024 136.181 290.035 135.616 290.056 134.976C290.077 134.336 290.109 133.685 290.152 133.024C290.195 132.341 290.227 131.68 290.248 131.04C290.291 130.379 290.312 129.792 290.312 129.28C290.312 128.853 290.323 128.277 290.344 127.552C290.387 126.827 290.408 126.08 290.408 125.312C290.408 124.523 290.387 123.776 290.344 123.072C290.301 122.368 290.195 121.845 290.024 121.504C289.853 121.611 289.683 121.792 289.512 122.048C289.341 122.304 289.181 122.581 289.032 122.88C288.883 123.179 288.744 123.488 288.616 123.808C288.509 124.107 288.403 124.373 288.296 124.608C288.104 125.141 287.933 125.781 287.784 126.528C287.635 127.253 287.507 127.893 287.4 128.448C287.293 129.173 287.261 129.92 287.304 130.688C287.347 131.435 287.421 132.128 287.528 132.768C287.635 133.301 287.752 133.717 287.88 134.016C288.008 134.293 288.125 134.507 288.232 134.656C288.36 134.805 288.467 134.912 288.552 134.976C288.659 135.019 288.733 135.083 288.776 135.168C288.883 135.339 288.893 135.488 288.808 135.616C288.723 135.723 288.595 135.776 288.424 135.776C288.232 135.776 287.997 135.68 287.72 135.488C287.464 135.275 287.219 134.891 286.984 134.336C286.749 133.696 286.6 133.141 286.536 132.672C286.472 132.181 286.397 131.605 286.312 130.944C286.269 130.731 286.269 130.56 286.312 130.432C286.355 130.283 286.376 130.069 286.376 129.792C286.376 128.619 286.493 127.477 286.728 126.368C286.984 125.259 287.315 124.192 287.72 123.168C287.805 122.933 287.923 122.656 288.072 122.336C288.243 121.995 288.424 121.664 288.616 121.344C288.829 121.024 289.053 120.757 289.288 120.544C289.523 120.309 289.768 120.192 290.024 120.192C290.472 120.192 290.824 120.384 291.08 120.768C291.336 121.152 291.528 121.632 291.656 122.208C291.784 122.784 291.859 123.403 291.88 124.064C291.901 124.725 291.912 125.323 291.912 125.856C291.912 127.712 291.88 129.515 291.816 131.264C291.773 133.013 291.752 134.752 291.752 136.48ZM309.812 136.768C309.812 136.32 309.919 135.765 310.133 135.104C310.367 134.421 310.666 133.771 311.029 133.152C311.413 132.512 311.85 131.979 312.341 131.552C312.853 131.104 313.386 130.88 313.941 130.88C314.325 130.88 314.655 130.976 314.933 131.168C315.21 131.36 315.423 131.573 315.573 131.808C315.722 132.021 315.786 132.224 315.765 132.416C315.765 132.608 315.658 132.704 315.445 132.704C315.21 132.704 314.986 132.587 314.773 132.352C314.559 132.096 314.303 131.968 314.005 131.968C313.77 131.968 313.482 132.107 313.141 132.384C312.821 132.661 312.426 133.205 311.957 134.016C311.743 134.357 311.541 134.805 311.349 135.36C311.178 135.893 311.093 136.427 311.093 136.96C311.135 136.917 311.146 136.907 311.125 136.928C311.125 136.949 311.167 136.907 311.253 136.8L311.509 136.416C311.679 136.16 311.871 135.829 312.085 135.424C312.319 134.997 312.543 134.592 312.757 134.208C312.991 133.803 313.205 133.451 313.397 133.152C313.61 132.853 313.77 132.704 313.877 132.704C314.154 132.704 314.335 132.789 314.421 132.96C314.527 133.109 314.591 133.312 314.613 133.568C314.634 133.824 314.645 134.112 314.645 134.432C314.645 134.752 314.677 135.061 314.741 135.36C314.869 135.936 315.061 136.363 315.317 136.64C315.594 136.896 315.903 137.024 316.245 137.024C316.842 137.024 317.503 136.661 318.229 135.936C318.527 135.659 318.73 135.435 318.837 135.264C318.965 135.072 319.146 134.859 319.381 134.624C319.53 134.411 319.722 134.304 319.957 134.304C320.085 134.304 320.181 134.357 320.245 134.464C320.309 134.549 320.319 134.699 320.277 134.912C320.234 135.104 320.106 135.349 319.893 135.648C319.701 135.947 319.402 136.288 318.997 136.672L318.036 137.44C317.418 137.867 316.821 138.08 316.245 138.08C315.839 138.08 315.477 137.984 315.157 137.792C314.837 137.6 314.559 137.365 314.325 137.088C314.111 136.789 313.941 136.459 313.812 136.096C313.685 135.733 313.621 135.381 313.621 135.04C313.471 135.147 313.301 135.392 313.109 135.776C312.917 136.139 312.703 136.523 312.469 136.928C312.255 137.312 312.031 137.664 311.797 137.984C311.562 138.304 311.327 138.464 311.093 138.464C310.495 138.464 310.133 138.325 310.005 138.048C309.877 137.771 309.812 137.344 309.812 136.768ZM319.126 136.512C319.126 136.192 319.158 135.733 319.222 135.136C319.307 134.539 319.414 133.952 319.542 133.376C319.691 132.779 319.862 132.267 320.054 131.84C320.246 131.392 320.459 131.168 320.694 131.168C320.843 131.168 320.939 131.179 320.982 131.2C321.024 131.221 321.099 131.243 321.206 131.264C321.376 131.627 321.387 132.085 321.238 132.64C321.11 133.195 320.992 133.803 320.886 134.464C320.715 135.424 320.587 136.267 320.502 136.992C320.416 137.696 320.48 138.507 320.694 139.424C321.014 139.339 321.344 139.072 321.686 138.624C322.048 138.155 322.379 137.632 322.678 137.056C322.998 136.459 323.286 135.883 323.542 135.328C323.798 134.773 323.99 134.357 324.118 134.08C324.203 133.931 324.278 133.749 324.342 133.536C324.427 133.323 324.512 133.12 324.598 132.928C324.704 132.736 324.811 132.576 324.918 132.448C325.046 132.32 325.184 132.256 325.334 132.256C325.547 132.256 325.643 132.373 325.622 132.608C325.622 132.843 325.568 133.12 325.462 133.44C325.376 133.739 325.259 134.048 325.11 134.368C324.96 134.688 324.843 134.933 324.758 135.104C324.63 135.36 324.427 135.797 324.15 136.416C323.872 137.035 323.542 137.653 323.158 138.272C322.795 138.891 322.39 139.445 321.942 139.936C321.515 140.405 321.088 140.64 320.662 140.64C320.363 140.64 320.075 140.501 319.798 140.224C319.584 140.032 319.424 139.787 319.318 139.488C319.232 139.168 319.168 138.837 319.126 138.496C319.104 138.133 319.094 137.781 319.094 137.44C319.115 137.099 319.126 136.789 319.126 136.512ZM329.656 140.128C329.229 140.128 328.845 139.989 328.504 139.712C328.184 139.435 327.939 139.147 327.768 138.848C327.384 138.123 327.16 137.269 327.096 136.288C327.053 135.285 327.117 134.379 327.288 133.568C327.309 133.397 327.341 133.195 327.384 132.96C327.448 132.725 327.523 132.501 327.608 132.288C327.693 132.053 327.8 131.861 327.928 131.712C328.056 131.541 328.195 131.456 328.344 131.456C328.707 131.456 328.92 131.552 328.984 131.744C329.048 131.915 329.048 132.192 328.984 132.576C328.92 132.96 328.824 133.451 328.696 134.048C328.589 134.645 328.536 135.349 328.536 136.16C328.536 136.395 328.557 136.683 328.6 137.024C328.643 137.344 328.707 137.653 328.792 137.952C328.899 138.251 329.027 138.507 329.176 138.72C329.347 138.912 329.539 139.008 329.752 139.008C330.008 139.008 330.296 138.923 330.616 138.752C330.936 138.56 331.245 138.336 331.544 138.08C331.843 137.824 332.109 137.568 332.344 137.312C332.6 137.056 332.792 136.853 332.92 136.704C332.963 136.661 333.08 136.512 333.272 136.256C333.464 136 333.688 135.723 333.944 135.424C334.2 135.125 334.456 134.859 334.712 134.624C334.989 134.389 335.203 134.272 335.352 134.272C335.501 134.272 335.576 134.4 335.576 134.656C335.576 134.805 335.469 135.04 335.256 135.36C335.064 135.659 334.829 135.979 334.552 136.32C334.275 136.661 333.997 136.981 333.72 137.28C333.464 137.579 333.272 137.792 333.144 137.92C332.952 138.112 332.728 138.336 332.472 138.592C332.237 138.848 331.971 139.093 331.672 139.328C331.373 139.541 331.053 139.733 330.712 139.904C330.392 140.053 330.04 140.128 329.656 140.128ZM328.632 127.424C328.632 127.061 328.728 126.752 328.92 126.496C329.112 126.219 329.325 126.08 329.56 126.08C329.816 126.08 330.029 126.24 330.2 126.56C330.499 127.157 330.531 127.627 330.296 127.968C330.083 128.288 329.816 128.448 329.496 128.448C329.261 128.448 329.059 128.373 328.888 128.224C328.717 128.053 328.632 127.787 328.632 127.424ZM325.289 125.728C325.289 125.493 325.481 125.248 325.865 124.992C326.228 124.736 326.697 124.48 327.273 124.224C327.849 123.968 328.489 123.723 329.193 123.488C329.897 123.253 330.591 123.04 331.273 122.848C331.956 122.635 332.585 122.453 333.161 122.304C333.737 122.155 334.175 122.037 334.473 121.952C334.815 121.867 335.071 121.813 335.241 121.792C335.412 121.749 335.54 121.707 335.625 121.664C335.711 121.6 335.764 121.515 335.785 121.408C335.828 121.28 335.881 121.077 335.945 120.8C336.116 119.925 336.308 119.328 336.521 119.008C336.756 118.667 336.98 118.496 337.193 118.496C337.364 118.496 337.503 118.592 337.609 118.784C337.737 118.955 337.801 119.168 337.801 119.424C337.801 119.616 337.791 119.701 337.769 119.68C337.748 119.637 337.748 119.701 337.769 119.872C337.769 119.915 337.769 119.968 337.769 120.032C337.791 120.096 337.801 120.181 337.801 120.288C337.801 120.501 337.769 120.629 337.705 120.672C337.641 120.693 337.567 120.715 337.481 120.736C337.396 120.736 337.321 120.768 337.257 120.832C337.193 120.896 337.161 121.056 337.161 121.312C337.417 121.312 337.695 121.28 337.993 121.216C338.313 121.152 338.591 121.099 338.825 121.056C339.764 120.885 340.703 120.736 341.641 120.608C342.58 120.459 343.54 120.384 344.521 120.384C344.905 120.384 345.204 120.448 345.417 120.576C345.652 120.704 345.801 120.853 345.865 121.024C345.929 121.173 345.908 121.323 345.801 121.472C345.695 121.6 345.492 121.664 345.193 121.664C345.151 121.493 345.119 121.419 345.097 121.44C345.097 121.44 345.001 121.419 344.809 121.376C344.724 121.355 344.553 121.344 344.297 121.344C343.849 121.344 343.252 121.397 342.505 121.504C341.759 121.589 341.001 121.696 340.233 121.824C339.465 121.952 338.761 122.08 338.121 122.208C337.503 122.315 337.097 122.389 336.905 122.432L336.265 128.992C336.244 129.141 336.233 129.301 336.233 129.472C336.255 129.643 336.265 129.813 336.265 129.984C336.265 130.197 336.244 130.336 336.201 130.4C336.18 130.464 336.169 130.613 336.169 130.848C336.169 131.317 336.18 131.861 336.201 132.48C336.223 133.077 336.212 133.547 336.169 133.888C336.148 134.123 336.127 134.645 336.105 135.456C336.084 136.267 336.073 137.152 336.073 138.112C336.073 139.051 336.073 139.957 336.073 140.832C336.073 141.707 336.084 142.315 336.105 142.656C336.105 142.848 336.127 143.104 336.169 143.424C336.212 143.765 336.233 144.096 336.233 144.416C336.255 144.736 336.233 145.013 336.169 145.248C336.105 145.483 335.967 145.6 335.753 145.6C335.54 145.6 335.369 145.536 335.241 145.408C335.135 145.28 335.049 145.12 334.985 144.928C334.943 144.736 334.911 144.523 334.889 144.288C334.889 144.075 334.889 143.872 334.889 143.68C334.847 143.104 334.815 142.443 334.793 141.696C334.772 140.971 334.761 140.224 334.761 139.456C334.761 138.688 334.761 137.941 334.761 137.216C334.783 136.469 334.793 135.808 334.793 135.232L334.889 133.728C334.889 133.429 334.889 132.971 334.889 132.352C334.889 131.712 334.9 131.061 334.921 130.4C334.943 129.717 334.964 129.088 334.985 128.512C335.007 127.915 335.039 127.499 335.081 127.264C335.124 127.051 335.145 126.795 335.145 126.496C335.167 126.197 335.188 125.941 335.209 125.728L335.497 122.752C335.391 122.795 335.199 122.848 334.921 122.912C334.644 122.955 334.42 122.997 334.249 123.04C333.183 123.296 332.18 123.573 331.241 123.872C330.303 124.149 329.332 124.48 328.329 124.864C328.137 124.949 327.967 125.045 327.817 125.152C327.647 125.237 327.465 125.323 327.273 125.408C327.081 125.493 326.943 125.557 326.857 125.6C326.772 125.621 326.719 125.653 326.697 125.696C326.676 125.739 326.655 125.803 326.633 125.888C326.612 125.952 326.569 126.059 326.505 126.208C326.292 126.251 326.111 126.272 325.961 126.272C325.791 126.272 325.641 126.24 325.513 126.176C325.364 126.112 325.289 125.963 325.289 125.728ZM338 133.728C338.085 132.619 338.192 131.531 338.32 130.464C338.448 129.376 338.629 128.288 338.864 127.2C338.928 126.901 338.992 126.656 339.056 126.464C339.12 126.251 339.184 126.016 339.248 125.76C339.397 125.333 339.504 125.056 339.568 124.928C339.653 124.779 339.781 124.704 339.952 124.704C340.016 124.704 340.091 124.715 340.176 124.736C340.261 124.736 340.357 124.747 340.464 124.768C340.571 125.259 340.549 125.845 340.4 126.528C340.251 127.189 340.133 127.797 340.048 128.352C339.813 129.824 339.621 131.445 339.472 133.216C339.323 134.987 339.248 136.672 339.248 138.272L339.344 141.856L339.6 141.248C339.813 140.608 339.995 140.053 340.144 139.584C340.315 139.115 340.485 138.667 340.656 138.24C340.848 137.792 341.051 137.333 341.264 136.864C341.499 136.395 341.787 135.851 342.128 135.232C342.363 134.805 342.587 134.443 342.8 134.144C343.013 133.845 343.365 133.696 343.856 133.696C344.027 133.696 344.155 133.803 344.24 134.016C344.347 134.229 344.421 134.475 344.464 134.752C344.507 135.029 344.528 135.307 344.528 135.584C344.549 135.861 344.56 136.075 344.56 136.224C344.56 136.843 344.571 137.355 344.592 137.76C344.635 138.165 344.763 138.571 344.976 138.976C345.211 138.912 345.435 138.795 345.648 138.624C345.861 138.453 346.053 138.261 346.224 138.048C346.395 137.813 346.555 137.579 346.704 137.344C346.875 137.088 347.024 136.864 347.152 136.672C347.301 136.437 347.44 136.203 347.568 135.968C347.696 135.733 347.824 135.488 347.952 135.232C348.144 134.891 348.293 134.656 348.4 134.528C348.528 134.4 348.656 134.336 348.784 134.336C348.848 134.336 348.965 134.357 349.136 134.4C349.243 134.784 349.221 135.093 349.072 135.328C348.923 135.563 348.763 135.84 348.592 136.16C348.443 136.437 348.24 136.8 347.984 137.248C347.728 137.675 347.44 138.101 347.12 138.528C346.8 138.933 346.459 139.285 346.096 139.584C345.733 139.861 345.36 140 344.976 140C344.272 140 343.813 139.371 343.6 138.112C343.536 137.749 343.493 137.269 343.472 136.672C343.451 136.053 343.44 135.52 343.44 135.072C343.291 135.179 343.109 135.435 342.896 135.84C342.683 136.224 342.469 136.651 342.256 137.12C342.043 137.568 341.84 138.027 341.648 138.496C341.477 138.944 341.339 139.285 341.232 139.52C340.976 140.203 340.763 140.864 340.592 141.504C340.443 142.165 340.272 142.795 340.08 143.392C339.973 143.733 339.845 143.947 339.696 144.032C339.568 144.139 339.355 144.192 339.056 144.192C338.779 144.192 338.555 143.883 338.384 143.264C338.213 142.645 338.085 141.931 338 141.12C337.915 140.331 337.861 139.563 337.84 138.816C337.819 138.069 337.808 137.579 337.808 137.344L338 133.728ZM348.198 139.872C348.049 139.872 347.942 139.787 347.878 139.616C347.814 139.445 347.771 139.264 347.75 139.072C347.75 138.859 347.761 138.656 347.782 138.464C347.803 138.272 347.814 138.144 347.814 138.08C347.793 137.696 347.782 137.312 347.782 136.928C347.803 136.523 347.803 136.117 347.782 135.712C347.782 135.563 347.782 135.275 347.782 134.848C347.803 134.421 347.835 133.984 347.878 133.536C347.942 133.088 348.027 132.693 348.134 132.352C348.241 131.989 348.379 131.808 348.55 131.808C348.977 131.808 349.19 131.947 349.19 132.224C349.211 132.501 349.201 132.864 349.158 133.312C349.137 133.483 349.126 133.653 349.126 133.824C349.126 133.995 349.126 134.165 349.126 134.336C349.126 134.571 349.115 134.72 349.094 134.784C349.073 134.827 349.062 134.955 349.062 135.168C349.297 134.997 349.51 134.805 349.702 134.592C349.894 134.357 350.235 134.24 350.726 134.24C350.875 134.24 351.067 134.24 351.302 134.24C351.558 134.219 351.825 134.208 352.102 134.208C352.571 134.208 353.009 134.24 353.414 134.304C353.819 134.347 354.022 134.475 354.022 134.688C354.022 134.923 353.905 135.072 353.67 135.136C353.457 135.179 353.19 135.2 352.87 135.2C352.657 135.2 352.433 135.2 352.198 135.2C351.985 135.179 351.793 135.168 351.622 135.168C351.323 135.168 351.078 135.179 350.886 135.2C350.694 135.2 350.534 135.232 350.406 135.296C350.278 135.339 350.161 135.413 350.054 135.52C349.969 135.627 349.862 135.787 349.734 136C349.563 136.277 349.414 136.576 349.286 136.896C349.158 137.216 349.062 137.568 348.998 137.952C348.955 138.165 348.934 138.389 348.934 138.624C348.934 138.837 348.923 139.04 348.902 139.232C348.881 139.424 348.817 139.584 348.71 139.712C348.625 139.819 348.454 139.872 348.198 139.872ZM352.969 136.768C352.969 136.32 353.075 135.765 353.289 135.104C353.523 134.421 353.822 133.771 354.185 133.152C354.569 132.512 355.006 131.979 355.497 131.552C356.009 131.104 356.542 130.88 357.097 130.88C357.481 130.88 357.811 130.976 358.089 131.168C358.366 131.36 358.579 131.573 358.729 131.808C358.878 132.021 358.942 132.224 358.921 132.416C358.921 132.608 358.814 132.704 358.601 132.704C358.366 132.704 358.142 132.587 357.929 132.352C357.715 132.096 357.459 131.968 357.161 131.968C356.926 131.968 356.638 132.107 356.297 132.384C355.977 132.661 355.582 133.205 355.113 134.016C354.899 134.357 354.697 134.805 354.505 135.36C354.334 135.893 354.249 136.427 354.249 136.96C354.291 136.917 354.302 136.907 354.281 136.928C354.281 136.949 354.323 136.907 354.409 136.8L354.665 136.416C354.835 136.16 355.027 135.829 355.241 135.424C355.475 134.997 355.699 134.592 355.913 134.208C356.147 133.803 356.361 133.451 356.553 133.152C356.766 132.853 356.926 132.704 357.033 132.704C357.31 132.704 357.491 132.789 357.577 132.96C357.683 133.109 357.747 133.312 357.769 133.568C357.79 133.824 357.801 134.112 357.801 134.432C357.801 134.752 357.833 135.061 357.897 135.36C358.025 135.936 358.217 136.363 358.473 136.64C358.75 136.896 359.059 137.024 359.401 137.024C359.998 137.024 360.659 136.661 361.385 135.936C361.683 135.659 361.886 135.435 361.993 135.264C362.121 135.072 362.302 134.859 362.537 134.624C362.686 134.411 362.878 134.304 363.113 134.304C363.241 134.304 363.337 134.357 363.401 134.464C363.465 134.549 363.475 134.699 363.433 134.912C363.39 135.104 363.262 135.349 363.049 135.648C362.857 135.947 362.558 136.288 362.153 136.672L361.193 137.44C360.574 137.867 359.977 138.08 359.401 138.08C358.995 138.08 358.633 137.984 358.313 137.792C357.993 137.6 357.715 137.365 357.481 137.088C357.267 136.789 357.097 136.459 356.969 136.096C356.841 135.733 356.777 135.381 356.777 135.04C356.627 135.147 356.457 135.392 356.265 135.776C356.073 136.139 355.859 136.523 355.625 136.928C355.411 137.312 355.187 137.664 354.953 137.984C354.718 138.304 354.483 138.464 354.249 138.464C353.651 138.464 353.289 138.325 353.161 138.048C353.033 137.771 352.969 137.344 352.969 136.768ZM363.146 138.336C362.805 138.336 362.57 138.155 362.442 137.792C362.314 137.429 362.25 136.981 362.25 136.448C362.271 135.893 362.346 135.296 362.474 134.656C362.623 134.016 362.794 133.429 362.986 132.896C363.199 132.341 363.423 131.883 363.658 131.52C363.893 131.157 364.106 130.976 364.298 130.976C364.661 130.976 364.821 131.147 364.778 131.488C364.757 131.829 364.661 132.267 364.49 132.8C364.319 133.333 364.127 133.931 363.914 134.592C363.722 135.232 363.626 135.861 363.626 136.48L365.162 134.144C365.205 134.059 365.29 133.909 365.418 133.696C365.567 133.461 365.727 133.237 365.898 133.024C366.09 132.789 366.282 132.587 366.474 132.416C366.687 132.245 366.89 132.16 367.082 132.16C367.338 132.16 367.541 132.331 367.69 132.672L367.882 134.464C367.882 134.656 367.893 134.955 367.914 135.36C367.935 135.765 367.978 136.171 368.042 136.576C368.127 136.981 368.255 137.344 368.426 137.664C368.597 137.963 368.831 138.112 369.13 138.112C369.45 138.112 369.781 137.92 370.122 137.536C370.485 137.131 370.826 136.693 371.146 136.224C371.487 135.733 371.786 135.296 372.042 134.912C372.319 134.507 372.533 134.304 372.682 134.304C373.002 134.304 373.141 134.432 373.098 134.688C373.077 134.923 372.981 135.2 372.81 135.52C372.639 135.84 372.447 136.139 372.234 136.416C372.021 136.693 371.893 136.864 371.85 136.928C371.743 137.077 371.594 137.259 371.402 137.472C371.231 137.685 371.039 137.899 370.826 138.112C370.634 138.304 370.431 138.485 370.218 138.656C370.026 138.827 369.834 138.933 369.642 138.976C369.429 139.04 369.226 139.072 369.034 139.072C368.543 139.072 368.149 138.891 367.85 138.528C367.573 138.165 367.359 137.771 367.21 137.344C367.061 136.853 366.954 136.416 366.89 136.032C366.847 135.627 366.826 135.264 366.826 134.944C366.826 134.624 366.826 134.347 366.826 134.112C366.826 133.877 366.794 133.685 366.73 133.536C366.474 133.707 366.197 134.059 365.898 134.592C365.621 135.104 365.322 135.637 365.002 136.192C364.703 136.747 364.394 137.248 364.074 137.696C363.775 138.123 363.466 138.336 363.146 138.336Z" fill="white"/>
</g>
<g style="mix-blend-mode:hard-light">
<path d="M66.008 153.12C66.392 153.12 66.808 152.981 67.256 152.704C67.7253 152.427 68.1733 152.085 68.6 151.68C69.048 151.275 69.4533 150.848 69.816 150.4C70.1787 149.952 70.4453 149.547 70.616 149.184C70.9573 148.736 71.3413 148.021 71.768 147.04C72.216 146.08 72.632 145.067 73.016 144C73.4213 142.933 73.752 141.92 74.008 140.96C74.2853 140 74.424 139.317 74.424 138.912C74.2533 139.019 74.0933 139.115 73.944 139.2C73.7947 139.285 73.6347 139.381 73.464 139.488L71.64 140.864C71.4693 140.992 71.32 141.109 71.192 141.216C71.064 141.323 70.9253 141.461 70.776 141.632C70.6267 141.781 70.488 141.899 70.36 141.984C70.232 142.069 70.0933 142.197 69.944 142.368L67.768 144.832C67.2987 145.408 66.872 146.037 66.488 146.72C66.0827 147.403 65.72 148.096 65.4 148.8C65.272 149.077 65.1333 149.461 64.984 149.952C64.8347 150.443 64.76 150.923 64.76 151.392C64.7387 151.861 64.8133 152.267 64.984 152.608C65.1547 152.949 65.496 153.12 66.008 153.12ZM67.48 127.168C67.48 126.528 67.5547 125.877 67.704 125.216C67.8533 124.533 68.0453 123.883 68.28 123.264C68.5147 122.645 68.7707 122.059 69.048 121.504C69.3253 120.928 69.5813 120.427 69.816 120C70.0507 119.573 70.3387 119.083 70.68 118.528C71.0427 117.973 71.4373 117.451 71.864 116.96C72.312 116.448 72.7813 116.021 73.272 115.68C73.784 115.339 74.3067 115.168 74.84 115.168C75.608 115.168 76.2053 115.563 76.632 116.352C77.0587 117.12 77.368 118.112 77.56 119.328C77.752 120.523 77.8587 121.845 77.88 123.296C77.9013 124.747 77.8693 126.155 77.784 127.52C77.6987 128.885 77.592 130.123 77.464 131.232C77.3573 132.32 77.2613 133.109 77.176 133.6L76.696 136.608C76.9307 136.48 77.2187 136.363 77.56 136.256C77.9013 136.128 78.2107 136.011 78.488 135.904C78.7653 135.797 79.0427 135.701 79.32 135.616C79.6187 135.509 79.928 135.392 80.248 135.264C80.9307 135.029 81.5707 134.816 82.168 134.624C82.7653 134.432 83.4267 134.336 84.152 134.336C84.1947 134.443 84.2267 134.528 84.248 134.592C84.2693 134.635 84.28 134.709 84.28 134.816C84.28 134.88 84.12 134.976 83.8 135.104C83.48 135.232 83.1173 135.371 82.712 135.52C82.3067 135.648 81.9227 135.765 81.56 135.872C81.1973 135.979 80.9627 136.043 80.856 136.064C80.3013 136.235 79.7147 136.427 79.096 136.64C78.4773 136.853 77.9227 137.088 77.432 137.344C77.2187 137.429 77.048 137.493 76.92 137.536C76.792 137.579 76.6853 137.632 76.6 137.696C76.536 137.739 76.472 137.824 76.408 137.952C76.344 138.08 76.28 138.272 76.216 138.528C75.704 140.725 75.0533 142.869 74.264 144.96C73.496 147.051 72.4293 149.003 71.064 150.816C70.808 151.136 70.488 151.488 70.104 151.872C69.7413 152.256 69.336 152.608 68.888 152.928C68.4613 153.248 68.0133 153.515 67.544 153.728C67.0747 153.963 66.616 154.08 66.168 154.08C65.4853 154.08 64.92 153.888 64.472 153.504C64.024 153.141 63.8 152.64 63.8 152V151.104C63.8 150.507 63.928 149.856 64.184 149.152C64.44 148.448 64.76 147.744 65.144 147.04C65.528 146.336 65.944 145.664 66.392 145.024C66.84 144.405 67.256 143.872 67.64 143.424C68.4507 142.464 69.2613 141.611 70.072 140.864C70.904 140.139 71.832 139.413 72.856 138.688L74.712 137.6C74.776 137.515 74.8507 137.227 74.936 136.736C75.0427 136.245 75.1387 135.712 75.224 135.136C75.3307 134.539 75.416 133.973 75.48 133.44C75.5653 132.907 75.6187 132.544 75.64 132.352C75.6827 131.925 75.7253 131.488 75.768 131.04C75.8107 130.571 75.864 130.091 75.928 129.6L76.312 123.872C76.312 123.381 76.28 122.912 76.216 122.464C76.1733 121.995 76.1627 121.451 76.184 120.832C76.2053 120.213 76.0773 119.381 75.8 118.336C75.6293 117.653 75.4373 117.173 75.224 116.896C75.0107 116.597 74.776 116.448 74.52 116.448C74.2 116.448 73.848 116.629 73.464 116.992C73.08 117.333 72.664 117.803 72.216 118.4C71.7893 118.955 71.352 119.595 70.904 120.32C70.456 121.024 70.0507 121.771 69.688 122.56C69.3253 123.349 69.0267 124.16 68.792 124.992C68.5573 125.803 68.44 126.592 68.44 127.36C68.44 127.936 68.504 128.491 68.632 129.024C68.76 129.536 69.0373 129.941 69.464 130.24C69.6987 130.453 69.8907 130.56 70.04 130.56C70.1893 130.56 70.4347 130.592 70.776 130.656C71.0747 130.72 71.2133 130.869 71.192 131.104C71.192 131.339 71.0853 131.456 70.872 131.456C70.2533 131.456 69.7307 131.392 69.304 131.264C68.8773 131.136 68.4613 130.763 68.056 130.144C67.8213 129.76 67.6613 129.312 67.576 128.8C67.512 128.288 67.48 127.744 67.48 127.168ZM85.406 140.128C84.9793 140.128 84.5953 139.989 84.254 139.712C83.934 139.435 83.6887 139.147 83.518 138.848C83.134 138.123 82.91 137.269 82.846 136.288C82.8033 135.285 82.8673 134.379 83.038 133.568C83.0593 133.397 83.0913 133.195 83.134 132.96C83.198 132.725 83.2727 132.501 83.358 132.288C83.4433 132.053 83.55 131.861 83.678 131.712C83.806 131.541 83.9447 131.456 84.094 131.456C84.4567 131.456 84.67 131.552 84.734 131.744C84.798 131.915 84.798 132.192 84.734 132.576C84.67 132.96 84.574 133.451 84.446 134.048C84.3393 134.645 84.286 135.349 84.286 136.16C84.286 136.395 84.3073 136.683 84.35 137.024C84.3927 137.344 84.4567 137.653 84.542 137.952C84.6487 138.251 84.7767 138.507 84.926 138.72C85.0967 138.912 85.2887 139.008 85.502 139.008C85.758 139.008 86.046 138.923 86.366 138.752C86.686 138.56 86.9953 138.336 87.294 138.08C87.5927 137.824 87.8593 137.568 88.094 137.312C88.35 137.056 88.542 136.853 88.67 136.704C88.7127 136.661 88.83 136.512 89.022 136.256C89.214 136 89.438 135.723 89.694 135.424C89.95 135.125 90.206 134.859 90.462 134.624C90.7393 134.389 90.9527 134.272 91.102 134.272C91.2513 134.272 91.326 134.4 91.326 134.656C91.326 134.805 91.2193 135.04 91.006 135.36C90.814 135.659 90.5793 135.979 90.302 136.32C90.0247 136.661 89.7473 136.981 89.47 137.28C89.214 137.579 89.022 137.792 88.894 137.92C88.702 138.112 88.478 138.336 88.222 138.592C87.9873 138.848 87.7207 139.093 87.422 139.328C87.1233 139.541 86.8033 139.733 86.462 139.904C86.142 140.053 85.79 140.128 85.406 140.128ZM84.382 127.424C84.382 127.061 84.478 126.752 84.67 126.496C84.862 126.219 85.0753 126.08 85.31 126.08C85.566 126.08 85.7793 126.24 85.95 126.56C86.2487 127.157 86.2807 127.627 86.046 127.968C85.8327 128.288 85.566 128.448 85.246 128.448C85.0113 128.448 84.8087 128.373 84.638 128.224C84.4673 128.053 84.382 127.787 84.382 127.424ZM90.4153 145.28C90.4153 145.728 90.5539 145.952 90.8313 145.952C90.9806 145.952 91.1406 145.899 91.3113 145.792C91.4819 145.707 91.6206 145.611 91.7273 145.504C92.1539 145.184 92.5273 144.693 92.8473 144.032C93.1886 143.392 93.4339 142.805 93.5833 142.272C93.6899 141.909 93.7433 141.536 93.7433 141.152C93.7646 140.789 93.7753 140.384 93.7753 139.936C93.5193 140.085 93.2206 140.341 92.8793 140.704C92.5593 141.088 92.3033 141.397 92.1113 141.632C91.7273 142.101 91.3433 142.667 90.9593 143.328C90.5966 143.989 90.4153 144.64 90.4153 145.28ZM90.1273 134.816C90.1273 134.411 90.2126 134.027 90.3833 133.664C90.5753 133.301 90.7993 132.992 91.0553 132.736C91.3326 132.459 91.6206 132.245 91.9193 132.096C92.2179 131.947 92.4846 131.872 92.7193 131.872C92.9539 131.872 93.1246 131.957 93.2313 132.128C93.3593 132.299 93.3699 132.587 93.2633 132.992C93.0713 133.035 92.9219 133.067 92.8153 133.088C92.7299 133.109 92.6553 133.131 92.5913 133.152C92.5273 133.173 92.4633 133.216 92.3993 133.28C92.3353 133.344 92.2393 133.44 92.1113 133.568C91.6846 134.037 91.4926 134.411 91.5353 134.688C91.5779 134.965 91.7486 135.243 92.0473 135.52C92.3459 135.776 92.7193 136.085 93.1673 136.448C93.6366 136.789 94.0739 137.269 94.4793 137.888C94.9486 137.568 95.4286 137.195 95.9193 136.768L98.8953 134.688C99.3859 134.347 99.8019 134.176 100.143 134.176C100.399 134.176 100.506 134.283 100.463 134.496C100.421 134.709 100.218 134.923 99.8553 135.136L97.6793 136.64C97.5939 136.683 97.4019 136.811 97.1033 137.024C96.8259 137.216 96.5273 137.44 96.2073 137.696C95.9086 137.931 95.6313 138.155 95.3753 138.368C95.1406 138.581 95.0126 138.72 94.9913 138.784C94.9699 138.891 95.0019 139.093 95.0873 139.392C95.1939 139.691 95.2579 140.075 95.2793 140.544C95.3006 141.035 95.2259 141.621 95.0553 142.304C94.9059 143.008 94.5646 143.819 94.0312 144.736C93.5619 145.525 93.0499 146.101 92.4953 146.464C91.9406 146.848 91.4179 147.04 90.9273 147.04C90.4793 147.04 90.1166 146.891 89.8392 146.592C89.5406 146.293 89.3912 145.856 89.3912 145.28C89.3912 144.555 89.5832 143.851 89.9672 143.168C90.3299 142.485 90.7353 141.856 91.1833 141.28C91.6526 140.704 92.1006 140.213 92.5273 139.808C92.9539 139.381 93.2313 139.072 93.3593 138.88C93.1033 138.432 92.7939 138.048 92.4313 137.728C92.0686 137.387 91.7166 137.077 91.3753 136.8C91.0339 136.501 90.7353 136.203 90.4793 135.904C90.2446 135.605 90.1273 135.243 90.1273 134.816ZM99.2812 133.728C99.3666 132.619 99.4733 131.531 99.6013 130.464C99.7293 129.376 99.9106 128.288 100.145 127.2C100.209 126.901 100.273 126.656 100.337 126.464C100.401 126.251 100.465 126.016 100.529 125.76C100.679 125.333 100.785 125.056 100.849 124.928C100.935 124.779 101.063 124.704 101.233 124.704C101.297 124.704 101.372 124.715 101.457 124.736C101.543 124.736 101.639 124.747 101.745 124.768C101.852 125.259 101.831 125.845 101.681 126.528C101.532 127.189 101.415 127.797 101.329 128.352C101.095 129.824 100.903 131.445 100.753 133.216C100.604 134.987 100.529 136.672 100.529 138.272L100.625 141.856L100.881 141.248C101.095 140.608 101.276 140.053 101.425 139.584C101.596 139.115 101.767 138.667 101.937 138.24C102.129 137.792 102.332 137.333 102.545 136.864C102.78 136.395 103.068 135.851 103.409 135.232C103.644 134.805 103.868 134.443 104.081 134.144C104.295 133.845 104.647 133.696 105.137 133.696C105.308 133.696 105.436 133.803 105.521 134.016C105.628 134.229 105.703 134.475 105.745 134.752C105.788 135.029 105.809 135.307 105.809 135.584C105.831 135.861 105.841 136.075 105.841 136.224C105.841 136.843 105.852 137.355 105.873 137.76C105.916 138.165 106.044 138.571 106.257 138.976C106.492 138.912 106.716 138.795 106.929 138.624C107.143 138.453 107.335 138.261 107.505 138.048C107.676 137.813 107.836 137.579 107.985 137.344C108.156 137.088 108.305 136.864 108.433 136.672C108.583 136.437 108.721 136.203 108.849 135.968C108.977 135.733 109.105 135.488 109.233 135.232C109.425 134.891 109.575 134.656 109.681 134.528C109.809 134.4 109.937 134.336 110.065 134.336C110.129 134.336 110.247 134.357 110.417 134.4C110.524 134.784 110.503 135.093 110.353 135.328C110.204 135.563 110.044 135.84 109.873 136.16C109.724 136.437 109.521 136.8 109.265 137.248C109.009 137.675 108.721 138.101 108.401 138.528C108.081 138.933 107.74 139.285 107.377 139.584C107.015 139.861 106.641 140 106.257 140C105.553 140 105.095 139.371 104.881 138.112C104.817 137.749 104.775 137.269 104.753 136.672C104.732 136.053 104.721 135.52 104.721 135.072C104.572 135.179 104.391 135.435 104.177 135.84C103.964 136.224 103.751 136.651 103.537 137.12C103.324 137.568 103.121 138.027 102.929 138.496C102.759 138.944 102.62 139.285 102.513 139.52C102.257 140.203 102.044 140.864 101.873 141.504C101.724 142.165 101.553 142.795 101.361 143.392C101.255 143.733 101.127 143.947 100.977 144.032C100.849 144.139 100.636 144.192 100.337 144.192C100.06 144.192 99.8359 143.883 99.6653 143.264C99.4946 142.645 99.3666 141.931 99.2812 141.12C99.1959 140.331 99.1426 139.563 99.1212 138.816C99.0999 138.069 99.0892 137.579 99.0892 137.344L99.2812 133.728ZM109.927 138.336C109.586 138.336 109.351 138.155 109.223 137.792C109.095 137.429 109.031 136.981 109.031 136.448C109.053 135.893 109.127 135.296 109.255 134.656C109.405 134.016 109.575 133.429 109.767 132.896C109.981 132.341 110.205 131.883 110.439 131.52C110.674 131.157 110.887 130.976 111.079 130.976C111.442 130.976 111.602 131.147 111.559 131.488C111.538 131.829 111.442 132.267 111.271 132.8C111.101 133.333 110.909 133.931 110.695 134.592C110.503 135.232 110.407 135.861 110.407 136.48L111.943 134.144C111.986 134.059 112.071 133.909 112.199 133.696C112.349 133.461 112.509 133.237 112.679 133.024C112.871 132.789 113.063 132.587 113.255 132.416C113.469 132.245 113.671 132.16 113.863 132.16C114.119 132.16 114.322 132.331 114.471 132.672L114.663 134.464C114.663 134.656 114.674 134.955 114.695 135.36C114.717 135.765 114.759 136.171 114.823 136.576C114.909 136.981 115.037 137.344 115.207 137.664C115.378 137.963 115.613 138.112 115.911 138.112C116.231 138.112 116.562 137.92 116.903 137.536C117.266 137.131 117.607 136.693 117.927 136.224C118.269 135.733 118.567 135.296 118.823 134.912C119.101 134.507 119.314 134.304 119.463 134.304C119.783 134.304 119.922 134.432 119.879 134.688C119.858 134.923 119.762 135.2 119.591 135.52C119.421 135.84 119.229 136.139 119.015 136.416C118.802 136.693 118.674 136.864 118.631 136.928C118.525 137.077 118.375 137.259 118.183 137.472C118.013 137.685 117.821 137.899 117.607 138.112C117.415 138.304 117.213 138.485 116.999 138.656C116.807 138.827 116.615 138.933 116.423 138.976C116.21 139.04 116.007 139.072 115.815 139.072C115.325 139.072 114.93 138.891 114.631 138.528C114.354 138.165 114.141 137.771 113.991 137.344C113.842 136.853 113.735 136.416 113.671 136.032C113.629 135.627 113.607 135.264 113.607 134.944C113.607 134.624 113.607 134.347 113.607 134.112C113.607 133.877 113.575 133.685 113.511 133.536C113.255 133.707 112.978 134.059 112.679 134.592C112.402 135.104 112.103 135.637 111.783 136.192C111.485 136.747 111.175 137.248 110.855 137.696C110.557 138.123 110.247 138.336 109.927 138.336ZM118.657 136.096C118.657 135.755 118.689 135.371 118.753 134.944C118.838 134.517 118.945 134.101 119.073 133.696C119.222 133.269 119.382 132.864 119.553 132.48C119.745 132.096 119.937 131.776 120.129 131.52C120.364 131.264 120.598 131.136 120.833 131.136C121.025 131.136 121.217 131.189 121.409 131.296C121.43 131.403 121.452 131.477 121.473 131.52C121.516 131.563 121.537 131.659 121.537 131.808C121.537 131.829 121.43 132.043 121.217 132.448C121.025 132.832 120.822 133.312 120.609 133.888C120.396 134.443 120.214 135.04 120.065 135.68C119.937 136.32 119.937 136.907 120.065 137.44C120.321 137.355 120.534 137.195 120.705 136.96C120.897 136.704 121.078 136.469 121.249 136.256L123.169 133.44C123.382 133.141 123.564 132.885 123.713 132.672C123.862 132.437 124.086 132.32 124.385 132.32C124.598 132.32 124.737 132.437 124.801 132.672C124.886 132.885 124.929 133.152 124.929 133.472C124.95 133.792 124.95 134.123 124.929 134.464C124.908 134.784 124.908 135.051 124.929 135.264C125.036 136.032 125.196 136.576 125.409 136.896C125.644 137.195 125.91 137.344 126.209 137.344C126.572 137.344 126.956 137.195 127.361 136.896C127.788 136.576 128.193 136.235 128.577 135.872C128.961 135.488 129.313 135.147 129.633 134.848C129.953 134.528 130.188 134.368 130.337 134.368C130.465 134.368 130.582 134.4 130.689 134.464C130.796 134.507 130.849 134.613 130.849 134.784C130.849 134.912 130.764 135.083 130.593 135.296C130.444 135.488 130.262 135.691 130.049 135.904C129.857 136.117 129.654 136.32 129.441 136.512C129.249 136.683 129.1 136.811 128.993 136.896C128.566 137.301 128.097 137.653 127.585 137.952C127.094 138.229 126.604 138.368 126.113 138.368C125.58 138.368 125.164 138.229 124.865 137.952C124.566 137.653 124.342 137.291 124.193 136.864C124.044 136.416 123.948 135.957 123.905 135.488C123.884 134.997 123.873 134.56 123.873 134.176C123.745 134.261 123.585 134.453 123.393 134.752C123.222 135.029 123.084 135.253 122.977 135.424C122.849 135.637 122.668 135.936 122.433 136.32C122.198 136.704 121.932 137.077 121.633 137.44C121.356 137.781 121.068 138.091 120.769 138.368C120.492 138.624 120.225 138.752 119.969 138.752C119.606 138.752 119.329 138.667 119.137 138.496C118.966 138.325 118.838 138.112 118.753 137.856C118.689 137.579 118.657 137.291 118.657 136.992C118.657 136.672 118.657 136.373 118.657 136.096Z" fill="white"/>
</g>
</svg>
