<svg width="448" height="225" viewBox="0 0 448 225" fill="none" xmlns="http://www.w3.org/2000/svg">
<g id="Frame 1">
<path d="M0 0H448V207C448 216.941 439.941 225 430 225H18C8.05889 225 0 216.941 0 207V0Z" fill="#2C281D"/>
<path id="JP" d="M189.406 56.64C185.95 56.64 183.31 58.128 181.486 61.104C180.718 62.448 180.286 63.984 180.19 65.712V156C180.19 164.064 177.646 170.88 172.558 176.448C167.566 182.016 161.374 184.8 153.982 184.8V183.504C158.686 181.872 162.67 178.32 165.934 172.848C169.198 167.472 170.83 161.712 170.83 155.568V65.712C170.734 63.216 169.774 61.104 167.95 59.376C166.222 57.552 164.11 56.64 161.614 56.64H159.742V55.2H191.278V56.64H189.406ZM273.677 82.992C273.677 87.216 272.813 91.152 271.085 94.8C267.917 101.616 262.349 106.368 254.381 109.056C251.597 110.016 249.197 110.496 247.181 110.496C241.229 110.496 236.093 109.392 231.773 107.184V105.744C238.781 107.28 245.261 106.512 251.213 103.44C256.493 100.752 260.093 96.336 262.013 90.192C262.589 88.272 262.877 86.448 262.877 84.72C262.877 82.992 262.877 81.936 262.877 81.552C262.685 74.832 260.909 69.504 257.549 65.568C254.189 61.536 249.485 59.52 243.437 59.52H226.877V145.488C226.973 147.984 227.885 150.144 229.613 151.968C231.437 153.696 233.597 154.56 236.093 154.56H237.965V156H206.429V154.56H208.301C210.797 154.56 212.909 153.696 214.637 151.968C216.461 150.144 217.421 147.984 217.517 145.488V64.992C217.229 62.592 216.221 60.624 214.493 59.088C212.765 57.456 210.701 56.64 208.301 56.64H206.573L206.429 55.2H244.013C253.229 55.2 260.477 57.696 265.757 62.688C271.037 67.584 273.677 74.352 273.677 82.992Z" fill="#89925F"/>
<g id="Pavithran" style="mix-blend-mode:hard-light">
<path d="M294.262 119.564C295.462 119.564 296.626 119.348 297.754 118.916C298.906 118.508 299.986 117.956 300.994 117.26C302.002 116.588 302.926 115.832 303.766 114.992C304.63 114.152 305.374 113.3 305.998 112.436C306.742 111.5 307.414 110.468 308.014 109.34C308.638 108.212 309.166 107.048 309.598 105.848C310.03 104.624 310.366 103.388 310.606 102.14C310.846 100.892 310.966 99.68 310.966 98.504C310.966 97.52 310.858 96.584 310.642 95.696C310.426 94.808 310.114 94.028 309.706 93.356C309.322 92.684 308.83 92.156 308.23 91.772C307.654 91.364 306.982 91.16 306.214 91.16C305.11 91.16 304.078 91.508 303.118 92.204C302.158 92.876 301.282 93.704 300.49 94.688C299.698 95.672 299.002 96.728 298.402 97.856C297.802 98.984 297.334 99.98 296.998 100.844L295.594 104.588C295.162 105.884 294.742 107.24 294.334 108.656C293.926 110.048 293.59 111.392 293.326 112.688C293.278 113 293.194 113.468 293.074 114.092C292.954 114.716 292.834 115.364 292.714 116.036C292.594 116.708 292.486 117.332 292.39 117.908C292.294 118.508 292.246 118.94 292.246 119.204C292.438 119.324 292.738 119.408 293.146 119.456C293.554 119.528 293.926 119.564 294.262 119.564ZM292.246 112.04C292.246 112.016 292.246 112.004 292.246 112.004C292.27 112.004 292.282 111.992 292.282 111.968L292.714 110.24C293.002 108.968 293.398 107.528 293.902 105.92C294.406 104.312 294.982 102.704 295.63 101.096C296.278 99.464 296.998 97.94 297.79 96.524C298.606 95.084 299.47 93.908 300.382 92.996C301.246 92.132 302.122 91.4 303.01 90.8C303.898 90.2 304.99 89.9 306.286 89.9C307.27 89.9 308.158 90.152 308.95 90.656C309.742 91.136 310.414 91.808 310.966 92.672C311.614 93.704 312.034 94.844 312.226 96.092C312.442 97.34 312.502 98.612 312.406 99.908C312.31 101.204 312.094 102.476 311.758 103.724C311.446 104.972 311.098 106.1 310.714 107.108C309.898 109.316 308.698 111.428 307.114 113.444C305.554 115.436 303.802 117.092 301.858 118.412C301.426 118.676 300.922 118.952 300.346 119.24C299.77 119.552 299.146 119.828 298.474 120.068C297.826 120.332 297.154 120.536 296.458 120.68C295.762 120.848 295.066 120.932 294.37 120.932C293.794 120.932 293.326 120.872 292.966 120.752C292.63 120.656 292.294 120.596 291.958 120.572L291.454 126.44C291.43 126.656 291.394 126.98 291.346 127.412C291.322 127.868 291.298 128.348 291.274 128.852C291.274 129.356 291.262 129.836 291.238 130.292C291.214 130.748 291.19 131.108 291.166 131.372C291.118 131.804 291.082 132.224 291.058 132.632C291.058 133.064 291.034 133.436 290.986 133.748C290.962 134.084 290.89 134.348 290.77 134.54C290.674 134.732 290.518 134.828 290.302 134.828C290.11 134.828 289.918 134.78 289.726 134.684C289.63 134.324 289.57 133.7 289.546 132.812C289.546 131.924 289.558 130.976 289.582 129.968C289.606 128.96 289.63 127.988 289.654 127.052C289.702 126.14 289.726 125.456 289.726 125C289.726 124.472 289.738 124.004 289.762 123.596C289.81 123.212 289.834 122.78 289.834 122.3C289.834 121.748 289.846 121.292 289.87 120.932C289.894 120.572 289.906 120.152 289.906 119.672C289.786 119.552 289.642 119.444 289.474 119.348C289.33 119.276 289.186 119.18 289.042 119.06C288.61 118.748 288.406 118.436 288.43 118.124C288.454 117.812 288.598 117.656 288.862 117.656C289.03 117.656 289.174 117.704 289.294 117.8C289.462 117.896 289.594 117.98 289.69 118.052C289.786 118.124 289.858 118.16 289.906 118.16C290.002 118.16 290.038 118.028 290.014 117.764C290.014 117.524 290.026 117.056 290.05 116.36C290.05 116.048 290.062 115.832 290.086 115.712C290.134 115.592 290.158 115.388 290.158 115.1C290.182 114.86 290.182 114.62 290.158 114.38C290.134 114.116 290.146 113.864 290.194 113.624C290.218 113.36 290.242 113.156 290.266 113.012C290.29 112.844 290.302 112.592 290.302 112.256C290.302 111.704 290.314 111.068 290.338 110.348C290.362 109.628 290.398 108.896 290.446 108.152C290.494 107.384 290.53 106.64 290.554 105.92C290.602 105.176 290.626 104.516 290.626 103.94C290.626 103.46 290.638 102.812 290.662 101.996C290.71 101.18 290.734 100.34 290.734 99.476C290.734 98.588 290.71 97.748 290.662 96.956C290.614 96.164 290.494 95.576 290.302 95.192C290.11 95.312 289.918 95.516 289.726 95.804C289.534 96.092 289.354 96.404 289.186 96.74C289.018 97.076 288.862 97.424 288.718 97.784C288.598 98.12 288.478 98.42 288.358 98.684C288.142 99.284 287.95 100.004 287.782 100.844C287.614 101.66 287.47 102.38 287.35 103.004C287.23 103.82 287.194 104.66 287.242 105.524C287.29 106.364 287.374 107.144 287.494 107.864C287.614 108.464 287.746 108.932 287.89 109.268C288.034 109.58 288.166 109.82 288.286 109.988C288.43 110.156 288.55 110.276 288.646 110.348C288.766 110.396 288.85 110.468 288.898 110.564C289.018 110.756 289.03 110.924 288.934 111.068C288.838 111.188 288.694 111.248 288.502 111.248C288.286 111.248 288.022 111.14 287.71 110.924C287.422 110.684 287.146 110.252 286.882 109.628C286.618 108.908 286.45 108.284 286.378 107.756C286.306 107.204 286.222 106.556 286.126 105.812C286.078 105.572 286.078 105.38 286.126 105.236C286.174 105.068 286.198 104.828 286.198 104.516C286.198 103.196 286.33 101.912 286.594 100.664C286.882 99.416 287.254 98.216 287.71 97.064C287.806 96.8 287.938 96.488 288.106 96.128C288.298 95.744 288.502 95.372 288.718 95.012C288.958 94.652 289.21 94.352 289.474 94.112C289.738 93.848 290.014 93.716 290.302 93.716C290.806 93.716 291.202 93.932 291.49 94.364C291.778 94.796 291.994 95.336 292.138 95.984C292.282 96.632 292.366 97.328 292.39 98.072C292.414 98.816 292.426 99.488 292.426 100.088C292.426 102.176 292.39 104.204 292.318 106.172C292.27 108.14 292.246 110.096 292.246 112.04ZM312.564 112.364C312.564 111.86 312.684 111.236 312.924 110.492C313.188 109.724 313.524 108.992 313.932 108.296C314.364 107.576 314.856 106.976 315.408 106.496C315.984 105.992 316.584 105.74 317.208 105.74C317.64 105.74 318.012 105.848 318.324 106.064C318.636 106.28 318.876 106.52 319.044 106.784C319.212 107.024 319.284 107.252 319.26 107.468C319.26 107.684 319.14 107.792 318.9 107.792C318.636 107.792 318.384 107.66 318.144 107.396C317.904 107.108 317.616 106.964 317.28 106.964C317.016 106.964 316.692 107.12 316.308 107.432C315.948 107.744 315.504 108.356 314.976 109.268C314.736 109.652 314.508 110.156 314.292 110.78C314.1 111.38 314.004 111.98 314.004 112.58C314.052 112.532 314.064 112.52 314.04 112.544C314.04 112.568 314.088 112.52 314.184 112.4L314.472 111.968C314.664 111.68 314.88 111.308 315.12 110.852C315.384 110.372 315.636 109.916 315.876 109.484C316.14 109.028 316.38 108.632 316.596 108.296C316.836 107.96 317.016 107.792 317.136 107.792C317.448 107.792 317.652 107.888 317.748 108.08C317.868 108.248 317.94 108.476 317.964 108.764C317.988 109.052 318 109.376 318 109.736C318 110.096 318.036 110.444 318.108 110.78C318.252 111.428 318.468 111.908 318.756 112.22C319.068 112.508 319.416 112.652 319.8 112.652C320.472 112.652 321.216 112.244 322.032 111.428C322.368 111.116 322.596 110.864 322.716 110.672C322.86 110.456 323.064 110.216 323.328 109.952C323.496 109.712 323.712 109.592 323.976 109.592C324.12 109.592 324.228 109.652 324.3 109.772C324.372 109.868 324.384 110.036 324.336 110.276C324.288 110.492 324.144 110.768 323.904 111.104C323.688 111.44 323.352 111.824 322.896 112.256L321.816 113.12C321.12 113.6 320.448 113.84 319.8 113.84C319.344 113.84 318.936 113.732 318.576 113.516C318.216 113.3 317.904 113.036 317.64 112.724C317.4 112.388 317.208 112.016 317.064 111.608C316.92 111.2 316.848 110.804 316.848 110.42C316.68 110.54 316.488 110.816 316.272 111.248C316.056 111.656 315.816 112.088 315.552 112.544C315.312 112.976 315.06 113.372 314.796 113.732C314.532 114.092 314.268 114.272 314.004 114.272C313.332 114.272 312.924 114.116 312.78 113.804C312.636 113.492 312.564 113.012 312.564 112.364ZM323.042 112.076C323.042 111.716 323.078 111.2 323.15 110.528C323.246 109.856 323.366 109.196 323.51 108.548C323.678 107.876 323.87 107.3 324.086 106.82C324.302 106.316 324.542 106.064 324.806 106.064C324.974 106.064 325.082 106.076 325.13 106.1C325.178 106.124 325.262 106.148 325.382 106.172C325.574 106.58 325.586 107.096 325.418 107.72C325.274 108.344 325.142 109.028 325.022 109.772C324.83 110.852 324.686 111.8 324.59 112.616C324.494 113.408 324.566 114.32 324.806 115.352C325.166 115.256 325.538 114.956 325.922 114.452C326.33 113.924 326.702 113.336 327.038 112.688C327.398 112.016 327.722 111.368 328.01 110.744C328.298 110.12 328.514 109.652 328.658 109.34C328.754 109.172 328.838 108.968 328.91 108.728C329.006 108.488 329.102 108.26 329.198 108.044C329.318 107.828 329.438 107.648 329.558 107.504C329.702 107.36 329.858 107.288 330.026 107.288C330.266 107.288 330.374 107.42 330.35 107.684C330.35 107.948 330.29 108.26 330.17 108.62C330.074 108.956 329.942 109.304 329.774 109.664C329.606 110.024 329.474 110.3 329.378 110.492C329.234 110.78 329.006 111.272 328.694 111.968C328.382 112.664 328.01 113.36 327.578 114.056C327.17 114.752 326.714 115.376 326.21 115.928C325.73 116.456 325.25 116.72 324.77 116.72C324.434 116.72 324.11 116.564 323.798 116.252C323.558 116.036 323.378 115.76 323.258 115.424C323.162 115.064 323.09 114.692 323.042 114.308C323.018 113.9 323.006 113.504 323.006 113.12C323.03 112.736 323.042 112.388 323.042 112.076ZM334.888 116.144C334.408 116.144 333.976 115.988 333.592 115.676C333.232 115.364 332.956 115.04 332.764 114.704C332.332 113.888 332.08 112.928 332.008 111.824C331.96 110.696 332.032 109.676 332.224 108.764C332.248 108.572 332.284 108.344 332.332 108.08C332.404 107.816 332.488 107.564 332.584 107.324C332.68 107.06 332.8 106.844 332.944 106.676C333.088 106.484 333.244 106.388 333.412 106.388C333.82 106.388 334.06 106.496 334.132 106.712C334.204 106.904 334.204 107.216 334.132 107.648C334.06 108.08 333.952 108.632 333.808 109.304C333.688 109.976 333.628 110.768 333.628 111.68C333.628 111.944 333.652 112.268 333.7 112.652C333.748 113.012 333.82 113.36 333.916 113.696C334.036 114.032 334.18 114.32 334.348 114.56C334.54 114.776 334.756 114.884 334.996 114.884C335.284 114.884 335.608 114.788 335.968 114.596C336.328 114.38 336.676 114.128 337.012 113.84C337.348 113.552 337.648 113.264 337.912 112.976C338.2 112.688 338.416 112.46 338.56 112.292C338.608 112.244 338.74 112.076 338.956 111.788C339.172 111.5 339.424 111.188 339.712 110.852C340 110.516 340.288 110.216 340.576 109.952C340.888 109.688 341.128 109.556 341.296 109.556C341.464 109.556 341.548 109.7 341.548 109.988C341.548 110.156 341.428 110.42 341.188 110.78C340.972 111.116 340.708 111.476 340.396 111.86C340.084 112.244 339.772 112.604 339.46 112.94C339.172 113.276 338.956 113.516 338.812 113.66C338.596 113.876 338.344 114.128 338.056 114.416C337.792 114.704 337.492 114.98 337.156 115.244C336.82 115.484 336.46 115.7 336.076 115.892C335.716 116.06 335.32 116.144 334.888 116.144ZM333.736 101.852C333.736 101.444 333.844 101.096 334.06 100.808C334.276 100.496 334.516 100.34 334.78 100.34C335.068 100.34 335.308 100.52 335.5 100.88C335.836 101.552 335.872 102.08 335.608 102.464C335.368 102.824 335.068 103.004 334.708 103.004C334.444 103.004 334.216 102.92 334.024 102.752C333.832 102.56 333.736 102.26 333.736 101.852ZM329.976 99.944C329.976 99.68 330.192 99.404 330.624 99.116C331.032 98.828 331.56 98.54 332.208 98.252C332.856 97.964 333.576 97.688 334.368 97.424C335.16 97.16 335.94 96.92 336.708 96.704C337.476 96.464 338.184 96.26 338.832 96.092C339.48 95.924 339.972 95.792 340.308 95.696C340.692 95.6 340.98 95.54 341.172 95.516C341.364 95.468 341.508 95.42 341.604 95.372C341.7 95.3 341.76 95.204 341.784 95.084C341.832 94.94 341.892 94.712 341.964 94.4C342.156 93.416 342.372 92.744 342.612 92.384C342.876 92 343.128 91.808 343.368 91.808C343.56 91.808 343.716 91.916 343.836 92.132C343.98 92.324 344.052 92.564 344.052 92.852C344.052 93.068 344.04 93.164 344.016 93.14C343.992 93.092 343.992 93.164 344.016 93.356C344.016 93.404 344.016 93.464 344.016 93.536C344.04 93.608 344.052 93.704 344.052 93.824C344.052 94.064 344.016 94.208 343.944 94.256C343.872 94.28 343.788 94.304 343.692 94.328C343.596 94.328 343.512 94.364 343.44 94.436C343.368 94.508 343.332 94.688 343.332 94.976C343.62 94.976 343.932 94.94 344.268 94.868C344.628 94.796 344.94 94.736 345.204 94.688C346.26 94.496 347.316 94.328 348.372 94.184C349.428 94.016 350.508 93.932 351.612 93.932C352.044 93.932 352.38 94.004 352.62 94.148C352.884 94.292 353.052 94.46 353.124 94.652C353.196 94.82 353.172 94.988 353.052 95.156C352.932 95.3 352.704 95.372 352.368 95.372C352.32 95.18 352.284 95.096 352.26 95.12C352.26 95.12 352.152 95.096 351.936 95.048C351.84 95.024 351.648 95.012 351.36 95.012C350.856 95.012 350.184 95.072 349.344 95.192C348.504 95.288 347.652 95.408 346.788 95.552C345.924 95.696 345.132 95.84 344.412 95.984C343.716 96.104 343.26 96.188 343.044 96.236L342.324 103.616C342.3 103.784 342.288 103.964 342.288 104.156C342.312 104.348 342.324 104.54 342.324 104.732C342.324 104.972 342.3 105.128 342.252 105.2C342.228 105.272 342.216 105.44 342.216 105.704C342.216 106.232 342.228 106.844 342.252 107.54C342.276 108.212 342.264 108.74 342.216 109.124C342.192 109.388 342.168 109.976 342.144 110.888C342.12 111.8 342.108 112.796 342.108 113.876C342.108 114.932 342.108 115.952 342.108 116.936C342.108 117.92 342.12 118.604 342.144 118.988C342.144 119.204 342.168 119.492 342.216 119.852C342.264 120.236 342.288 120.608 342.288 120.968C342.312 121.328 342.288 121.64 342.216 121.904C342.144 122.168 341.988 122.3 341.748 122.3C341.508 122.3 341.316 122.228 341.172 122.084C341.052 121.94 340.956 121.76 340.884 121.544C340.836 121.328 340.8 121.088 340.776 120.824C340.776 120.584 340.776 120.356 340.776 120.14C340.728 119.492 340.692 118.748 340.668 117.908C340.644 117.092 340.632 116.252 340.632 115.388C340.632 114.524 340.632 113.684 340.632 112.868C340.656 112.028 340.668 111.284 340.668 110.636L340.776 108.944C340.776 108.608 340.776 108.092 340.776 107.396C340.776 106.676 340.788 105.944 340.812 105.2C340.836 104.432 340.86 103.724 340.884 103.076C340.908 102.404 340.944 101.936 340.992 101.672C341.04 101.432 341.064 101.144 341.064 100.808C341.088 100.472 341.112 100.184 341.136 99.944L341.46 96.596C341.34 96.644 341.124 96.704 340.812 96.776C340.5 96.824 340.248 96.872 340.056 96.92C338.856 97.208 337.728 97.52 336.672 97.856C335.616 98.168 334.524 98.54 333.396 98.972C333.18 99.068 332.988 99.176 332.82 99.296C332.628 99.392 332.424 99.488 332.208 99.584C331.992 99.68 331.836 99.752 331.74 99.8C331.644 99.824 331.584 99.86 331.56 99.908C331.536 99.956 331.512 100.028 331.488 100.124C331.464 100.196 331.416 100.316 331.344 100.484C331.104 100.532 330.9 100.556 330.732 100.556C330.54 100.556 330.372 100.52 330.228 100.448C330.06 100.376 329.976 100.208 329.976 99.944ZM344.275 108.944C344.371 107.696 344.491 106.472 344.635 105.272C344.779 104.048 344.983 102.824 345.247 101.6C345.319 101.264 345.391 100.988 345.463 100.772C345.535 100.532 345.607 100.268 345.679 99.98C345.847 99.5 345.967 99.188 346.039 99.044C346.135 98.876 346.279 98.792 346.471 98.792C346.543 98.792 346.627 98.804 346.723 98.828C346.819 98.828 346.927 98.84 347.047 98.864C347.167 99.416 347.143 100.076 346.975 100.844C346.807 101.588 346.675 102.272 346.579 102.896C346.315 104.552 346.099 106.376 345.931 108.368C345.763 110.36 345.679 112.256 345.679 114.056L345.787 118.088L346.075 117.404C346.315 116.684 346.519 116.06 346.687 115.532C346.879 115.004 347.071 114.5 347.263 114.02C347.479 113.516 347.707 113 347.947 112.472C348.211 111.944 348.535 111.332 348.919 110.636C349.183 110.156 349.435 109.748 349.675 109.412C349.915 109.076 350.311 108.908 350.863 108.908C351.055 108.908 351.199 109.028 351.295 109.268C351.415 109.508 351.499 109.784 351.547 110.096C351.595 110.408 351.619 110.72 351.619 111.032C351.643 111.344 351.655 111.584 351.655 111.752C351.655 112.448 351.667 113.024 351.691 113.48C351.739 113.936 351.883 114.392 352.123 114.848C352.387 114.776 352.639 114.644 352.879 114.452C353.119 114.26 353.335 114.044 353.527 113.804C353.719 113.54 353.899 113.276 354.067 113.012C354.259 112.724 354.427 112.472 354.571 112.256C354.739 111.992 354.895 111.728 355.039 111.464C355.183 111.2 355.327 110.924 355.471 110.636C355.687 110.252 355.855 109.988 355.975 109.844C356.119 109.7 356.263 109.628 356.407 109.628C356.479 109.628 356.611 109.652 356.803 109.7C356.923 110.132 356.899 110.48 356.731 110.744C356.563 111.008 356.383 111.32 356.191 111.68C356.023 111.992 355.795 112.4 355.507 112.904C355.219 113.384 354.895 113.864 354.535 114.344C354.175 114.8 353.791 115.196 353.383 115.532C352.975 115.844 352.555 116 352.123 116C351.331 116 350.815 115.292 350.575 113.876C350.503 113.468 350.455 112.928 350.431 112.256C350.407 111.56 350.395 110.96 350.395 110.456C350.227 110.576 350.023 110.864 349.783 111.32C349.543 111.752 349.303 112.232 349.063 112.76C348.823 113.264 348.595 113.78 348.379 114.308C348.187 114.812 348.031 115.196 347.911 115.46C347.623 116.228 347.383 116.972 347.191 117.692C347.023 118.436 346.831 119.144 346.615 119.816C346.495 120.2 346.351 120.44 346.183 120.536C346.039 120.656 345.799 120.716 345.463 120.716C345.151 120.716 344.899 120.368 344.707 119.672C344.515 118.976 344.371 118.172 344.275 117.26C344.179 116.372 344.119 115.508 344.095 114.668C344.071 113.828 344.059 113.276 344.059 113.012L344.275 108.944ZM355.748 115.856C355.58 115.856 355.46 115.76 355.388 115.568C355.316 115.376 355.268 115.172 355.244 114.956C355.244 114.716 355.256 114.488 355.28 114.272C355.304 114.056 355.316 113.912 355.316 113.84C355.292 113.408 355.28 112.976 355.28 112.544C355.304 112.088 355.304 111.632 355.28 111.176C355.28 111.008 355.28 110.684 355.28 110.204C355.304 109.724 355.34 109.232 355.388 108.728C355.46 108.224 355.556 107.78 355.676 107.396C355.796 106.988 355.952 106.784 356.144 106.784C356.624 106.784 356.864 106.94 356.864 107.252C356.888 107.564 356.876 107.972 356.828 108.476C356.804 108.668 356.792 108.86 356.792 109.052C356.792 109.244 356.792 109.436 356.792 109.628C356.792 109.892 356.78 110.06 356.756 110.132C356.732 110.18 356.72 110.324 356.72 110.564C356.984 110.372 357.224 110.156 357.44 109.916C357.656 109.652 358.04 109.52 358.592 109.52C358.76 109.52 358.976 109.52 359.24 109.52C359.528 109.496 359.828 109.484 360.14 109.484C360.668 109.484 361.16 109.52 361.616 109.592C362.072 109.64 362.3 109.784 362.3 110.024C362.3 110.288 362.168 110.456 361.904 110.528C361.664 110.576 361.364 110.6 361.004 110.6C360.764 110.6 360.512 110.6 360.248 110.6C360.008 110.576 359.792 110.564 359.6 110.564C359.264 110.564 358.988 110.576 358.772 110.6C358.556 110.6 358.376 110.636 358.232 110.708C358.088 110.756 357.956 110.84 357.836 110.96C357.74 111.08 357.62 111.26 357.476 111.5C357.284 111.812 357.116 112.148 356.972 112.508C356.828 112.868 356.72 113.264 356.648 113.696C356.6 113.936 356.576 114.188 356.576 114.452C356.576 114.692 356.564 114.92 356.54 115.136C356.516 115.352 356.444 115.532 356.324 115.676C356.228 115.796 356.036 115.856 355.748 115.856ZM361.115 112.364C361.115 111.86 361.235 111.236 361.475 110.492C361.739 109.724 362.075 108.992 362.483 108.296C362.915 107.576 363.407 106.976 363.959 106.496C364.535 105.992 365.135 105.74 365.759 105.74C366.191 105.74 366.563 105.848 366.875 106.064C367.187 106.28 367.427 106.52 367.595 106.784C367.763 107.024 367.835 107.252 367.811 107.468C367.811 107.684 367.691 107.792 367.451 107.792C367.187 107.792 366.935 107.66 366.695 107.396C366.455 107.108 366.167 106.964 365.831 106.964C365.567 106.964 365.243 107.12 364.859 107.432C364.499 107.744 364.055 108.356 363.527 109.268C363.287 109.652 363.059 110.156 362.843 110.78C362.651 111.38 362.555 111.98 362.555 112.58C362.603 112.532 362.615 112.52 362.591 112.544C362.591 112.568 362.639 112.52 362.735 112.4L363.023 111.968C363.215 111.68 363.431 111.308 363.671 110.852C363.935 110.372 364.187 109.916 364.427 109.484C364.691 109.028 364.931 108.632 365.147 108.296C365.387 107.96 365.567 107.792 365.687 107.792C365.999 107.792 366.203 107.888 366.299 108.08C366.419 108.248 366.491 108.476 366.515 108.764C366.539 109.052 366.551 109.376 366.551 109.736C366.551 110.096 366.587 110.444 366.659 110.78C366.803 111.428 367.019 111.908 367.307 112.22C367.619 112.508 367.967 112.652 368.351 112.652C369.023 112.652 369.767 112.244 370.583 111.428C370.919 111.116 371.147 110.864 371.267 110.672C371.411 110.456 371.615 110.216 371.879 109.952C372.047 109.712 372.263 109.592 372.527 109.592C372.671 109.592 372.779 109.652 372.851 109.772C372.923 109.868 372.935 110.036 372.887 110.276C372.839 110.492 372.695 110.768 372.455 111.104C372.239 111.44 371.903 111.824 371.447 112.256L370.367 113.12C369.671 113.6 368.999 113.84 368.351 113.84C367.895 113.84 367.487 113.732 367.127 113.516C366.767 113.3 366.455 113.036 366.191 112.724C365.951 112.388 365.759 112.016 365.615 111.608C365.471 111.2 365.399 110.804 365.399 110.42C365.231 110.54 365.039 110.816 364.823 111.248C364.607 111.656 364.367 112.088 364.103 112.544C363.863 112.976 363.611 113.372 363.347 113.732C363.083 114.092 362.819 114.272 362.555 114.272C361.883 114.272 361.475 114.116 361.331 113.804C361.187 113.492 361.115 113.012 361.115 112.364ZM372.565 114.128C372.181 114.128 371.917 113.924 371.773 113.516C371.629 113.108 371.557 112.604 371.557 112.004C371.581 111.38 371.665 110.708 371.809 109.988C371.977 109.268 372.169 108.608 372.385 108.008C372.625 107.384 372.877 106.868 373.141 106.46C373.405 106.052 373.645 105.848 373.861 105.848C374.269 105.848 374.449 106.04 374.401 106.424C374.377 106.808 374.269 107.3 374.077 107.9C373.885 108.5 373.669 109.172 373.429 109.916C373.213 110.636 373.105 111.344 373.105 112.04L374.833 109.412C374.881 109.316 374.977 109.148 375.121 108.908C375.289 108.644 375.469 108.392 375.661 108.152C375.877 107.888 376.093 107.66 376.309 107.468C376.549 107.276 376.777 107.18 376.993 107.18C377.281 107.18 377.509 107.372 377.677 107.756L377.893 109.772C377.893 109.988 377.905 110.324 377.929 110.78C377.953 111.236 378.001 111.692 378.073 112.148C378.169 112.604 378.313 113.012 378.505 113.372C378.697 113.708 378.961 113.876 379.297 113.876C379.657 113.876 380.029 113.66 380.413 113.228C380.821 112.772 381.205 112.28 381.565 111.752C381.949 111.2 382.285 110.708 382.573 110.276C382.885 109.82 383.125 109.592 383.293 109.592C383.653 109.592 383.809 109.736 383.761 110.024C383.737 110.288 383.629 110.6 383.437 110.96C383.245 111.32 383.029 111.656 382.789 111.968C382.549 112.28 382.405 112.472 382.357 112.544C382.237 112.712 382.069 112.916 381.853 113.156C381.661 113.396 381.445 113.636 381.205 113.876C380.989 114.092 380.761 114.296 380.521 114.488C380.305 114.68 380.089 114.8 379.873 114.848C379.633 114.92 379.405 114.956 379.189 114.956C378.637 114.956 378.193 114.752 377.857 114.344C377.545 113.936 377.305 113.492 377.137 113.012C376.969 112.46 376.849 111.968 376.777 111.536C376.729 111.08 376.705 110.672 376.705 110.312C376.705 109.952 376.705 109.64 376.705 109.376C376.705 109.112 376.669 108.896 376.597 108.728C376.309 108.92 375.997 109.316 375.661 109.916C375.349 110.492 375.013 111.092 374.653 111.716C374.317 112.34 373.969 112.904 373.609 113.408C373.273 113.888 372.925 114.128 372.565 114.128Z" fill="white"/>
</g>
<g id="Jishnu" style="mix-blend-mode:hard-light">
<path d="M70.7629 130.76C71.1949 130.76 71.6629 130.604 72.1669 130.292C72.6949 129.98 73.1989 129.596 73.6789 129.14C74.1829 128.684 74.6389 128.204 75.0469 127.7C75.4549 127.196 75.7549 126.74 75.9469 126.332C76.3309 125.828 76.7629 125.024 77.2429 123.92C77.7469 122.84 78.2149 121.7 78.6469 120.5C79.1029 119.3 79.4749 118.16 79.7629 117.08C80.0749 116 80.2309 115.232 80.2309 114.776C80.0389 114.896 79.8589 115.004 79.6909 115.1C79.5229 115.196 79.3429 115.304 79.1509 115.424L77.0989 116.972C76.9069 117.116 76.7389 117.248 76.5949 117.368C76.4509 117.488 76.2949 117.644 76.1269 117.836C75.9589 118.004 75.8029 118.136 75.6589 118.232C75.5149 118.328 75.3589 118.472 75.1909 118.664L72.7429 121.436C72.2149 122.084 71.7349 122.792 71.3029 123.56C70.8469 124.328 70.4389 125.108 70.0789 125.9C69.9349 126.212 69.7789 126.644 69.6109 127.196C69.4429 127.748 69.3589 128.288 69.3589 128.816C69.3349 129.344 69.4189 129.8 69.6109 130.184C69.8029 130.568 70.1869 130.76 70.7629 130.76ZM72.4189 101.564C72.4189 100.844 72.5029 100.112 72.6709 99.368C72.8389 98.6 73.0549 97.868 73.3189 97.172C73.5829 96.476 73.8709 95.816 74.1829 95.192C74.4949 94.544 74.7829 93.98 75.0469 93.5C75.3109 93.02 75.6349 92.468 76.0189 91.844C76.4269 91.22 76.8709 90.632 77.3509 90.08C77.8549 89.504 78.3829 89.024 78.9349 88.64C79.5109 88.256 80.0989 88.064 80.6989 88.064C81.5629 88.064 82.2349 88.508 82.7149 89.396C83.1949 90.26 83.5429 91.376 83.7589 92.744C83.9749 94.088 84.0949 95.576 84.1189 97.208C84.1429 98.84 84.1069 100.424 84.0109 101.96C83.9149 103.496 83.7949 104.888 83.6509 106.136C83.5309 107.36 83.4229 108.248 83.3269 108.8L82.7869 112.184C83.0509 112.04 83.3749 111.908 83.7589 111.788C84.1429 111.644 84.4909 111.512 84.8029 111.392C85.1149 111.272 85.4269 111.164 85.7389 111.068C86.0749 110.948 86.4229 110.816 86.7829 110.672C87.5509 110.408 88.2709 110.168 88.9429 109.952C89.6149 109.736 90.3589 109.628 91.1749 109.628C91.2229 109.748 91.2589 109.844 91.2829 109.916C91.3069 109.964 91.3189 110.048 91.3189 110.168C91.3189 110.24 91.1389 110.348 90.7789 110.492C90.4189 110.636 90.0109 110.792 89.5549 110.96C89.0989 111.104 88.6669 111.236 88.2589 111.356C87.8509 111.476 87.5869 111.548 87.4669 111.572C86.8429 111.764 86.1829 111.98 85.4869 112.22C84.7909 112.46 84.1669 112.724 83.6149 113.012C83.3749 113.108 83.1829 113.18 83.0389 113.228C82.8949 113.276 82.7749 113.336 82.6789 113.408C82.6069 113.456 82.5349 113.552 82.4629 113.696C82.3909 113.84 82.3189 114.056 82.2469 114.344C81.6709 116.816 80.9389 119.228 80.0509 121.58C79.1869 123.932 77.9869 126.128 76.4509 128.168C76.1629 128.528 75.8029 128.924 75.3709 129.356C74.9629 129.788 74.5069 130.184 74.0029 130.544C73.5229 130.904 73.0189 131.204 72.4909 131.444C71.9629 131.708 71.4469 131.84 70.9429 131.84C70.1749 131.84 69.5389 131.624 69.0349 131.192C68.5309 130.784 68.2789 130.22 68.2789 129.5V128.492C68.2789 127.82 68.4229 127.088 68.7109 126.296C68.9989 125.504 69.3589 124.712 69.7909 123.92C70.2229 123.128 70.6909 122.372 71.1949 121.652C71.6989 120.956 72.1669 120.356 72.5989 119.852C73.5109 118.772 74.4229 117.812 75.3349 116.972C76.2709 116.156 77.3149 115.34 78.4669 114.524L80.5549 113.3C80.6269 113.204 80.7109 112.88 80.8069 112.328C80.9269 111.776 81.0349 111.176 81.1309 110.528C81.2509 109.856 81.3469 109.22 81.4189 108.62C81.5149 108.02 81.5749 107.612 81.5989 107.396C81.6469 106.916 81.6949 106.424 81.7429 105.92C81.7909 105.392 81.8509 104.852 81.9229 104.3L82.3549 97.856C82.3549 97.304 82.3189 96.776 82.2469 96.272C82.1989 95.744 82.1869 95.132 82.2109 94.436C82.2349 93.74 82.0909 92.804 81.7789 91.628C81.5869 90.86 81.3709 90.32 81.1309 90.008C80.8909 89.672 80.6269 89.504 80.3389 89.504C79.9789 89.504 79.5829 89.708 79.1509 90.116C78.7189 90.5 78.2509 91.028 77.7469 91.7C77.2669 92.324 76.7749 93.044 76.2709 93.86C75.7669 94.652 75.3109 95.492 74.9029 96.38C74.4949 97.268 74.1589 98.18 73.8949 99.116C73.6309 100.028 73.4989 100.916 73.4989 101.78C73.4989 102.428 73.5709 103.052 73.7149 103.652C73.8589 104.228 74.1709 104.684 74.6509 105.02C74.9149 105.26 75.1309 105.38 75.2989 105.38C75.4669 105.38 75.7429 105.416 76.1269 105.488C76.4629 105.56 76.6189 105.728 76.5949 105.992C76.5949 106.256 76.4749 106.388 76.2349 106.388C75.5389 106.388 74.9509 106.316 74.4709 106.172C73.9909 106.028 73.5229 105.608 73.0669 104.912C72.8029 104.48 72.6229 103.976 72.5269 103.4C72.4549 102.824 72.4189 102.212 72.4189 101.564ZM92.5857 116.144C92.1057 116.144 91.6737 115.988 91.2897 115.676C90.9297 115.364 90.6537 115.04 90.4617 114.704C90.0297 113.888 89.7777 112.928 89.7057 111.824C89.6577 110.696 89.7297 109.676 89.9217 108.764C89.9457 108.572 89.9817 108.344 90.0297 108.08C90.1017 107.816 90.1857 107.564 90.2817 107.324C90.3777 107.06 90.4977 106.844 90.6417 106.676C90.7857 106.484 90.9417 106.388 91.1097 106.388C91.5177 106.388 91.7577 106.496 91.8297 106.712C91.9017 106.904 91.9017 107.216 91.8297 107.648C91.7577 108.08 91.6497 108.632 91.5057 109.304C91.3857 109.976 91.3257 110.768 91.3257 111.68C91.3257 111.944 91.3497 112.268 91.3977 112.652C91.4457 113.012 91.5177 113.36 91.6137 113.696C91.7337 114.032 91.8777 114.32 92.0457 114.56C92.2377 114.776 92.4537 114.884 92.6937 114.884C92.9817 114.884 93.3057 114.788 93.6657 114.596C94.0257 114.38 94.3737 114.128 94.7097 113.84C95.0457 113.552 95.3457 113.264 95.6097 112.976C95.8977 112.688 96.1137 112.46 96.2577 112.292C96.3057 112.244 96.4377 112.076 96.6537 111.788C96.8697 111.5 97.1217 111.188 97.4097 110.852C97.6977 110.516 97.9857 110.216 98.2737 109.952C98.5857 109.688 98.8257 109.556 98.9937 109.556C99.1617 109.556 99.2457 109.7 99.2457 109.988C99.2457 110.156 99.1257 110.42 98.8857 110.78C98.6697 111.116 98.4057 111.476 98.0937 111.86C97.7817 112.244 97.4697 112.604 97.1577 112.94C96.8697 113.276 96.6537 113.516 96.5097 113.66C96.2937 113.876 96.0417 114.128 95.7537 114.416C95.4897 114.704 95.1897 114.98 94.8537 115.244C94.5177 115.484 94.1577 115.7 93.7737 115.892C93.4137 116.06 93.0177 116.144 92.5857 116.144ZM91.4337 101.852C91.4337 101.444 91.5417 101.096 91.7577 100.808C91.9737 100.496 92.2137 100.34 92.4777 100.34C92.7657 100.34 93.0057 100.52 93.1977 100.88C93.5337 101.552 93.5697 102.08 93.3057 102.464C93.0657 102.824 92.7657 103.004 92.4057 103.004C92.1417 103.004 91.9137 102.92 91.7217 102.752C91.5297 102.56 91.4337 102.26 91.4337 101.852ZM98.2211 121.94C98.2211 122.444 98.3771 122.696 98.6891 122.696C98.8571 122.696 99.0371 122.636 99.2291 122.516C99.4211 122.42 99.5771 122.312 99.6971 122.192C100.177 121.832 100.597 121.28 100.957 120.536C101.341 119.816 101.617 119.156 101.785 118.556C101.905 118.148 101.965 117.728 101.965 117.296C101.989 116.888 102.001 116.432 102.001 115.928C101.713 116.096 101.377 116.384 100.993 116.792C100.633 117.224 100.345 117.572 100.129 117.836C99.6971 118.364 99.2651 119 98.8331 119.744C98.4251 120.488 98.2211 121.22 98.2211 121.94ZM97.8971 110.168C97.8971 109.712 97.9931 109.28 98.1851 108.872C98.4011 108.464 98.6531 108.116 98.9411 107.828C99.2531 107.516 99.5771 107.276 99.9131 107.108C100.249 106.94 100.549 106.856 100.813 106.856C101.077 106.856 101.269 106.952 101.389 107.144C101.533 107.336 101.545 107.66 101.425 108.116C101.209 108.164 101.041 108.2 100.921 108.224C100.825 108.248 100.741 108.272 100.669 108.296C100.597 108.32 100.525 108.368 100.453 108.44C100.381 108.512 100.273 108.62 100.129 108.764C99.6491 109.292 99.4331 109.712 99.4811 110.024C99.5291 110.336 99.7211 110.648 100.057 110.96C100.393 111.248 100.813 111.596 101.317 112.004C101.845 112.388 102.337 112.928 102.793 113.624C103.321 113.264 103.861 112.844 104.413 112.364L107.761 110.024C108.313 109.64 108.781 109.448 109.165 109.448C109.453 109.448 109.573 109.568 109.525 109.808C109.477 110.048 109.249 110.288 108.841 110.528L106.393 112.22C106.297 112.268 106.081 112.412 105.745 112.652C105.433 112.868 105.097 113.12 104.737 113.408C104.401 113.672 104.089 113.924 103.801 114.164C103.537 114.404 103.393 114.56 103.369 114.632C103.345 114.752 103.381 114.98 103.477 115.316C103.597 115.652 103.669 116.084 103.693 116.612C103.717 117.164 103.633 117.824 103.441 118.592C103.273 119.384 102.889 120.296 102.289 121.328C101.761 122.216 101.185 122.864 100.561 123.272C99.9371 123.704 99.3491 123.92 98.7971 123.92C98.2931 123.92 97.8851 123.752 97.5731 123.416C97.2371 123.08 97.0691 122.588 97.0691 121.94C97.0691 121.124 97.2851 120.332 97.7171 119.564C98.1251 118.796 98.5811 118.088 99.0851 117.44C99.6131 116.792 100.117 116.24 100.597 115.784C101.077 115.304 101.389 114.956 101.533 114.74C101.245 114.236 100.897 113.804 100.489 113.444C100.081 113.06 99.6851 112.712 99.3011 112.4C98.9171 112.064 98.5811 111.728 98.2931 111.392C98.0291 111.056 97.8971 110.648 97.8971 110.168ZM108.195 108.944C108.291 107.696 108.411 106.472 108.555 105.272C108.699 104.048 108.903 102.824 109.167 101.6C109.239 101.264 109.311 100.988 109.383 100.772C109.455 100.532 109.527 100.268 109.599 99.98C109.767 99.5 109.887 99.188 109.959 99.044C110.055 98.876 110.199 98.792 110.391 98.792C110.463 98.792 110.547 98.804 110.643 98.828C110.739 98.828 110.847 98.84 110.967 98.864C111.087 99.416 111.063 100.076 110.895 100.844C110.727 101.588 110.595 102.272 110.499 102.896C110.235 104.552 110.019 106.376 109.851 108.368C109.683 110.36 109.599 112.256 109.599 114.056L109.707 118.088L109.995 117.404C110.235 116.684 110.439 116.06 110.607 115.532C110.799 115.004 110.991 114.5 111.183 114.02C111.399 113.516 111.627 113 111.867 112.472C112.131 111.944 112.455 111.332 112.839 110.636C113.103 110.156 113.355 109.748 113.595 109.412C113.835 109.076 114.231 108.908 114.783 108.908C114.975 108.908 115.119 109.028 115.215 109.268C115.335 109.508 115.419 109.784 115.467 110.096C115.515 110.408 115.539 110.72 115.539 111.032C115.563 111.344 115.575 111.584 115.575 111.752C115.575 112.448 115.587 113.024 115.611 113.48C115.659 113.936 115.803 114.392 116.043 114.848C116.307 114.776 116.559 114.644 116.799 114.452C117.039 114.26 117.255 114.044 117.447 113.804C117.639 113.54 117.819 113.276 117.987 113.012C118.179 112.724 118.347 112.472 118.491 112.256C118.659 111.992 118.815 111.728 118.959 111.464C119.103 111.2 119.247 110.924 119.391 110.636C119.607 110.252 119.775 109.988 119.895 109.844C120.039 109.7 120.183 109.628 120.327 109.628C120.399 109.628 120.531 109.652 120.723 109.7C120.843 110.132 120.819 110.48 120.651 110.744C120.483 111.008 120.303 111.32 120.111 111.68C119.943 111.992 119.715 112.4 119.427 112.904C119.139 113.384 118.815 113.864 118.455 114.344C118.095 114.8 117.711 115.196 117.303 115.532C116.895 115.844 116.475 116 116.043 116C115.251 116 114.735 115.292 114.495 113.876C114.423 113.468 114.375 112.928 114.351 112.256C114.327 111.56 114.315 110.96 114.315 110.456C114.147 110.576 113.943 110.864 113.703 111.32C113.463 111.752 113.223 112.232 112.983 112.76C112.743 113.264 112.515 113.78 112.299 114.308C112.107 114.812 111.951 115.196 111.831 115.46C111.543 116.228 111.303 116.972 111.111 117.692C110.943 118.436 110.751 119.144 110.535 119.816C110.415 120.2 110.271 120.44 110.103 120.536C109.959 120.656 109.719 120.716 109.383 120.716C109.071 120.716 108.819 120.368 108.627 119.672C108.435 118.976 108.291 118.172 108.195 117.26C108.099 116.372 108.039 115.508 108.015 114.668C107.991 113.828 107.979 113.276 107.979 113.012L108.195 108.944ZM120.172 114.128C119.788 114.128 119.524 113.924 119.38 113.516C119.236 113.108 119.164 112.604 119.164 112.004C119.188 111.38 119.272 110.708 119.416 109.988C119.584 109.268 119.776 108.608 119.992 108.008C120.232 107.384 120.484 106.868 120.748 106.46C121.012 106.052 121.252 105.848 121.468 105.848C121.876 105.848 122.056 106.04 122.008 106.424C121.984 106.808 121.876 107.3 121.684 107.9C121.492 108.5 121.276 109.172 121.036 109.916C120.82 110.636 120.712 111.344 120.712 112.04L122.44 109.412C122.488 109.316 122.584 109.148 122.728 108.908C122.896 108.644 123.076 108.392 123.268 108.152C123.484 107.888 123.7 107.66 123.916 107.468C124.156 107.276 124.384 107.18 124.6 107.18C124.888 107.18 125.116 107.372 125.284 107.756L125.5 109.772C125.5 109.988 125.512 110.324 125.536 110.78C125.56 111.236 125.608 111.692 125.68 112.148C125.776 112.604 125.92 113.012 126.112 113.372C126.304 113.708 126.568 113.876 126.904 113.876C127.264 113.876 127.636 113.66 128.02 113.228C128.428 112.772 128.812 112.28 129.172 111.752C129.556 111.2 129.892 110.708 130.18 110.276C130.492 109.82 130.732 109.592 130.9 109.592C131.26 109.592 131.416 109.736 131.368 110.024C131.344 110.288 131.236 110.6 131.044 110.96C130.852 111.32 130.636 111.656 130.396 111.968C130.156 112.28 130.012 112.472 129.964 112.544C129.844 112.712 129.676 112.916 129.46 113.156C129.268 113.396 129.052 113.636 128.812 113.876C128.596 114.092 128.368 114.296 128.128 114.488C127.912 114.68 127.696 114.8 127.48 114.848C127.24 114.92 127.012 114.956 126.796 114.956C126.244 114.956 125.8 114.752 125.464 114.344C125.152 113.936 124.912 113.492 124.744 113.012C124.576 112.46 124.456 111.968 124.384 111.536C124.336 111.08 124.312 110.672 124.312 110.312C124.312 109.952 124.312 109.64 124.312 109.376C124.312 109.112 124.276 108.896 124.204 108.728C123.916 108.92 123.604 109.316 123.268 109.916C122.956 110.492 122.62 111.092 122.26 111.716C121.924 112.34 121.576 112.904 121.216 113.408C120.88 113.888 120.532 114.128 120.172 114.128ZM129.993 111.608C129.993 111.224 130.029 110.792 130.101 110.312C130.197 109.832 130.317 109.364 130.461 108.908C130.629 108.428 130.809 107.972 131.001 107.54C131.217 107.108 131.433 106.748 131.649 106.46C131.913 106.172 132.177 106.028 132.441 106.028C132.657 106.028 132.873 106.088 133.089 106.208C133.113 106.328 133.137 106.412 133.161 106.46C133.209 106.508 133.233 106.616 133.233 106.784C133.233 106.808 133.113 107.048 132.873 107.504C132.657 107.936 132.429 108.476 132.189 109.124C131.949 109.748 131.745 110.42 131.577 111.14C131.433 111.86 131.433 112.52 131.577 113.12C131.865 113.024 132.105 112.844 132.297 112.58C132.513 112.292 132.717 112.028 132.909 111.788L135.069 108.62C135.309 108.284 135.513 107.996 135.681 107.756C135.849 107.492 136.101 107.36 136.437 107.36C136.677 107.36 136.833 107.492 136.905 107.756C137.001 107.996 137.049 108.296 137.049 108.656C137.073 109.016 137.073 109.388 137.049 109.772C137.025 110.132 137.025 110.432 137.049 110.672C137.169 111.536 137.349 112.148 137.589 112.508C137.853 112.844 138.153 113.012 138.489 113.012C138.897 113.012 139.329 112.844 139.785 112.508C140.265 112.148 140.721 111.764 141.153 111.356C141.585 110.924 141.981 110.54 142.341 110.204C142.701 109.844 142.965 109.664 143.133 109.664C143.277 109.664 143.409 109.7 143.529 109.772C143.649 109.82 143.709 109.94 143.709 110.132C143.709 110.276 143.613 110.468 143.421 110.708C143.253 110.924 143.049 111.152 142.809 111.392C142.593 111.632 142.365 111.86 142.125 112.076C141.909 112.268 141.741 112.412 141.621 112.508C141.141 112.964 140.613 113.36 140.037 113.696C139.485 114.008 138.933 114.164 138.381 114.164C137.781 114.164 137.313 114.008 136.977 113.696C136.641 113.36 136.389 112.952 136.221 112.472C136.053 111.968 135.945 111.452 135.897 110.924C135.873 110.372 135.861 109.88 135.861 109.448C135.717 109.544 135.537 109.76 135.321 110.096C135.129 110.408 134.973 110.66 134.853 110.852C134.709 111.092 134.505 111.428 134.241 111.86C133.977 112.292 133.677 112.712 133.341 113.12C133.029 113.504 132.705 113.852 132.369 114.164C132.057 114.452 131.757 114.596 131.469 114.596C131.061 114.596 130.749 114.5 130.533 114.308C130.341 114.116 130.197 113.876 130.101 113.588C130.029 113.276 129.993 112.952 129.993 112.616C129.993 112.256 129.993 111.92 129.993 111.608Z" fill="white"/>
</g>
</g>
</svg>
