<svg width="324" height="225" viewBox="0 0 324 225" fill="none" xmlns="http://www.w3.org/2000/svg">
<g id="Logo">
<path id="JP" d="M122.406 56.64C118.95 56.64 116.31 58.128 114.486 61.104C113.718 62.448 113.286 63.984 113.19 65.712V156C113.19 164.064 110.646 170.88 105.558 176.448C100.566 182.016 94.3736 184.8 86.9816 184.8V183.504C91.6856 181.872 95.6696 178.32 98.9336 172.848C102.198 167.472 103.83 161.712 103.83 155.568V65.712C103.734 63.216 102.774 61.104 100.95 59.376C99.2216 57.552 97.1096 56.64 94.6136 56.64H92.7416V55.2H124.278V56.64H122.406ZM206.677 82.992C206.677 87.216 205.813 91.152 204.085 94.8C200.917 101.616 195.349 106.368 187.381 109.056C184.597 110.016 182.197 110.496 180.181 110.496C174.229 110.496 169.093 109.392 164.773 107.184V105.744C171.781 107.28 178.261 106.512 184.213 103.44C189.493 100.752 193.093 96.336 195.013 90.192C195.589 88.272 195.877 86.448 195.877 84.72C195.877 82.992 195.877 81.936 195.877 81.552C195.685 74.832 193.909 69.504 190.549 65.568C187.189 61.536 182.485 59.52 176.437 59.52H159.877V145.488C159.973 147.984 160.885 150.144 162.613 151.968C164.437 153.696 166.597 154.56 169.093 154.56H170.965V156H139.429V154.56H141.301C143.797 154.56 145.909 153.696 147.637 151.968C149.461 150.144 150.421 147.984 150.517 145.488V64.992C150.229 62.592 149.221 60.624 147.493 59.088C145.765 57.456 143.701 56.64 141.301 56.64H139.573L139.429 55.2H177.013C186.229 55.2 193.477 57.696 198.757 62.688C204.037 67.584 206.677 74.352 206.677 82.992Z" fill="#89925F"/>
<g id="Pavithran" style="mix-blend-mode:hard-light">
<path d="M227.262 119.564C228.462 119.564 229.626 119.348 230.754 118.916C231.906 118.508 232.986 117.956 233.994 117.26C235.002 116.588 235.926 115.832 236.766 114.992C237.63 114.152 238.374 113.3 238.998 112.436C239.742 111.5 240.414 110.468 241.014 109.34C241.638 108.212 242.166 107.048 242.598 105.848C243.03 104.624 243.366 103.388 243.606 102.14C243.846 100.892 243.966 99.68 243.966 98.504C243.966 97.52 243.858 96.584 243.642 95.696C243.426 94.808 243.114 94.028 242.706 93.356C242.322 92.684 241.83 92.156 241.23 91.772C240.654 91.364 239.982 91.16 239.214 91.16C238.11 91.16 237.078 91.508 236.118 92.204C235.158 92.876 234.282 93.704 233.49 94.688C232.698 95.672 232.002 96.728 231.402 97.856C230.802 98.984 230.334 99.98 229.998 100.844L228.594 104.588C228.162 105.884 227.742 107.24 227.334 108.656C226.926 110.048 226.59 111.392 226.326 112.688C226.278 113 226.194 113.468 226.074 114.092C225.954 114.716 225.834 115.364 225.714 116.036C225.594 116.708 225.486 117.332 225.39 117.908C225.294 118.508 225.246 118.94 225.246 119.204C225.438 119.324 225.738 119.408 226.146 119.456C226.554 119.528 226.926 119.564 227.262 119.564ZM225.246 112.04C225.246 112.016 225.246 112.004 225.246 112.004C225.27 112.004 225.282 111.992 225.282 111.968L225.714 110.24C226.002 108.968 226.398 107.528 226.902 105.92C227.406 104.312 227.982 102.704 228.63 101.096C229.278 99.464 229.998 97.94 230.79 96.524C231.606 95.084 232.47 93.908 233.382 92.996C234.246 92.132 235.122 91.4 236.01 90.8C236.898 90.2 237.99 89.9 239.286 89.9C240.27 89.9 241.158 90.152 241.95 90.656C242.742 91.136 243.414 91.808 243.966 92.672C244.614 93.704 245.034 94.844 245.226 96.092C245.442 97.34 245.502 98.612 245.406 99.908C245.31 101.204 245.094 102.476 244.758 103.724C244.446 104.972 244.098 106.1 243.714 107.108C242.898 109.316 241.698 111.428 240.114 113.444C238.554 115.436 236.802 117.092 234.858 118.412C234.426 118.676 233.922 118.952 233.346 119.24C232.77 119.552 232.146 119.828 231.474 120.068C230.826 120.332 230.154 120.536 229.458 120.68C228.762 120.848 228.066 120.932 227.37 120.932C226.794 120.932 226.326 120.872 225.966 120.752C225.63 120.656 225.294 120.596 224.958 120.572L224.454 126.44C224.43 126.656 224.394 126.98 224.346 127.412C224.322 127.868 224.298 128.348 224.274 128.852C224.274 129.356 224.262 129.836 224.238 130.292C224.214 130.748 224.19 131.108 224.166 131.372C224.118 131.804 224.082 132.224 224.058 132.632C224.058 133.064 224.034 133.436 223.986 133.748C223.962 134.084 223.89 134.348 223.77 134.54C223.674 134.732 223.518 134.828 223.302 134.828C223.11 134.828 222.918 134.78 222.726 134.684C222.63 134.324 222.57 133.7 222.546 132.812C222.546 131.924 222.558 130.976 222.582 129.968C222.606 128.96 222.63 127.988 222.654 127.052C222.702 126.14 222.726 125.456 222.726 125C222.726 124.472 222.738 124.004 222.762 123.596C222.81 123.212 222.834 122.78 222.834 122.3C222.834 121.748 222.846 121.292 222.87 120.932C222.894 120.572 222.906 120.152 222.906 119.672C222.786 119.552 222.642 119.444 222.474 119.348C222.33 119.276 222.186 119.18 222.042 119.06C221.61 118.748 221.406 118.436 221.43 118.124C221.454 117.812 221.598 117.656 221.862 117.656C222.03 117.656 222.174 117.704 222.294 117.8C222.462 117.896 222.594 117.98 222.69 118.052C222.786 118.124 222.858 118.16 222.906 118.16C223.002 118.16 223.038 118.028 223.014 117.764C223.014 117.524 223.026 117.056 223.05 116.36C223.05 116.048 223.062 115.832 223.086 115.712C223.134 115.592 223.158 115.388 223.158 115.1C223.182 114.86 223.182 114.62 223.158 114.38C223.134 114.116 223.146 113.864 223.194 113.624C223.218 113.36 223.242 113.156 223.266 113.012C223.29 112.844 223.302 112.592 223.302 112.256C223.302 111.704 223.314 111.068 223.338 110.348C223.362 109.628 223.398 108.896 223.446 108.152C223.494 107.384 223.53 106.64 223.554 105.92C223.602 105.176 223.626 104.516 223.626 103.94C223.626 103.46 223.638 102.812 223.662 101.996C223.71 101.18 223.734 100.34 223.734 99.476C223.734 98.588 223.71 97.748 223.662 96.956C223.614 96.164 223.494 95.576 223.302 95.192C223.11 95.312 222.918 95.516 222.726 95.804C222.534 96.092 222.354 96.404 222.186 96.74C222.018 97.076 221.862 97.424 221.718 97.784C221.598 98.12 221.478 98.42 221.358 98.684C221.142 99.284 220.95 100.004 220.782 100.844C220.614 101.66 220.47 102.38 220.35 103.004C220.23 103.82 220.194 104.66 220.242 105.524C220.29 106.364 220.374 107.144 220.494 107.864C220.614 108.464 220.746 108.932 220.89 109.268C221.034 109.58 221.166 109.82 221.286 109.988C221.43 110.156 221.55 110.276 221.646 110.348C221.766 110.396 221.85 110.468 221.898 110.564C222.018 110.756 222.03 110.924 221.934 111.068C221.838 111.188 221.694 111.248 221.502 111.248C221.286 111.248 221.022 111.14 220.71 110.924C220.422 110.684 220.146 110.252 219.882 109.628C219.618 108.908 219.45 108.284 219.378 107.756C219.306 107.204 219.222 106.556 219.126 105.812C219.078 105.572 219.078 105.38 219.126 105.236C219.174 105.068 219.198 104.828 219.198 104.516C219.198 103.196 219.33 101.912 219.594 100.664C219.882 99.416 220.254 98.216 220.71 97.064C220.806 96.8 220.938 96.488 221.106 96.128C221.298 95.744 221.502 95.372 221.718 95.012C221.958 94.652 222.21 94.352 222.474 94.112C222.738 93.848 223.014 93.716 223.302 93.716C223.806 93.716 224.202 93.932 224.49 94.364C224.778 94.796 224.994 95.336 225.138 95.984C225.282 96.632 225.366 97.328 225.39 98.072C225.414 98.816 225.426 99.488 225.426 100.088C225.426 102.176 225.39 104.204 225.318 106.172C225.27 108.14 225.246 110.096 225.246 112.04ZM245.564 112.364C245.564 111.86 245.684 111.236 245.924 110.492C246.188 109.724 246.524 108.992 246.932 108.296C247.364 107.576 247.856 106.976 248.408 106.496C248.984 105.992 249.584 105.74 250.208 105.74C250.64 105.74 251.012 105.848 251.324 106.064C251.636 106.28 251.876 106.52 252.044 106.784C252.212 107.024 252.284 107.252 252.26 107.468C252.26 107.684 252.14 107.792 251.9 107.792C251.636 107.792 251.384 107.66 251.144 107.396C250.904 107.108 250.616 106.964 250.28 106.964C250.016 106.964 249.692 107.12 249.308 107.432C248.948 107.744 248.504 108.356 247.976 109.268C247.736 109.652 247.508 110.156 247.292 110.78C247.1 111.38 247.004 111.98 247.004 112.58C247.052 112.532 247.064 112.52 247.04 112.544C247.04 112.568 247.088 112.52 247.184 112.4L247.472 111.968C247.664 111.68 247.88 111.308 248.12 110.852C248.384 110.372 248.636 109.916 248.876 109.484C249.14 109.028 249.38 108.632 249.596 108.296C249.836 107.96 250.016 107.792 250.136 107.792C250.448 107.792 250.652 107.888 250.748 108.08C250.868 108.248 250.94 108.476 250.964 108.764C250.988 109.052 251 109.376 251 109.736C251 110.096 251.036 110.444 251.108 110.78C251.252 111.428 251.468 111.908 251.756 112.22C252.068 112.508 252.416 112.652 252.8 112.652C253.472 112.652 254.216 112.244 255.032 111.428C255.368 111.116 255.596 110.864 255.716 110.672C255.86 110.456 256.064 110.216 256.328 109.952C256.496 109.712 256.712 109.592 256.976 109.592C257.12 109.592 257.228 109.652 257.3 109.772C257.372 109.868 257.384 110.036 257.336 110.276C257.288 110.492 257.144 110.768 256.904 111.104C256.688 111.44 256.352 111.824 255.896 112.256L254.816 113.12C254.12 113.6 253.448 113.84 252.8 113.84C252.344 113.84 251.936 113.732 251.576 113.516C251.216 113.3 250.904 113.036 250.64 112.724C250.4 112.388 250.208 112.016 250.064 111.608C249.92 111.2 249.848 110.804 249.848 110.42C249.68 110.54 249.488 110.816 249.272 111.248C249.056 111.656 248.816 112.088 248.552 112.544C248.312 112.976 248.06 113.372 247.796 113.732C247.532 114.092 247.268 114.272 247.004 114.272C246.332 114.272 245.924 114.116 245.78 113.804C245.636 113.492 245.564 113.012 245.564 112.364ZM256.042 112.076C256.042 111.716 256.078 111.2 256.15 110.528C256.246 109.856 256.366 109.196 256.51 108.548C256.678 107.876 256.87 107.3 257.086 106.82C257.302 106.316 257.542 106.064 257.806 106.064C257.974 106.064 258.082 106.076 258.13 106.1C258.178 106.124 258.262 106.148 258.382 106.172C258.574 106.58 258.586 107.096 258.418 107.72C258.274 108.344 258.142 109.028 258.022 109.772C257.83 110.852 257.686 111.8 257.59 112.616C257.494 113.408 257.566 114.32 257.806 115.352C258.166 115.256 258.538 114.956 258.922 114.452C259.33 113.924 259.702 113.336 260.038 112.688C260.398 112.016 260.722 111.368 261.01 110.744C261.298 110.12 261.514 109.652 261.658 109.34C261.754 109.172 261.838 108.968 261.91 108.728C262.006 108.488 262.102 108.26 262.198 108.044C262.318 107.828 262.438 107.648 262.558 107.504C262.702 107.36 262.858 107.288 263.026 107.288C263.266 107.288 263.374 107.42 263.35 107.684C263.35 107.948 263.29 108.26 263.17 108.62C263.074 108.956 262.942 109.304 262.774 109.664C262.606 110.024 262.474 110.3 262.378 110.492C262.234 110.78 262.006 111.272 261.694 111.968C261.382 112.664 261.01 113.36 260.578 114.056C260.17 114.752 259.714 115.376 259.21 115.928C258.73 116.456 258.25 116.72 257.77 116.72C257.434 116.72 257.11 116.564 256.798 116.252C256.558 116.036 256.378 115.76 256.258 115.424C256.162 115.064 256.09 114.692 256.042 114.308C256.018 113.9 256.006 113.504 256.006 113.12C256.03 112.736 256.042 112.388 256.042 112.076ZM267.888 116.144C267.408 116.144 266.976 115.988 266.592 115.676C266.232 115.364 265.956 115.04 265.764 114.704C265.332 113.888 265.08 112.928 265.008 111.824C264.96 110.696 265.032 109.676 265.224 108.764C265.248 108.572 265.284 108.344 265.332 108.08C265.404 107.816 265.488 107.564 265.584 107.324C265.68 107.06 265.8 106.844 265.944 106.676C266.088 106.484 266.244 106.388 266.412 106.388C266.82 106.388 267.06 106.496 267.132 106.712C267.204 106.904 267.204 107.216 267.132 107.648C267.06 108.08 266.952 108.632 266.808 109.304C266.688 109.976 266.628 110.768 266.628 111.68C266.628 111.944 266.652 112.268 266.7 112.652C266.748 113.012 266.82 113.36 266.916 113.696C267.036 114.032 267.18 114.32 267.348 114.56C267.54 114.776 267.756 114.884 267.996 114.884C268.284 114.884 268.608 114.788 268.968 114.596C269.328 114.38 269.676 114.128 270.012 113.84C270.348 113.552 270.648 113.264 270.912 112.976C271.2 112.688 271.416 112.46 271.56 112.292C271.608 112.244 271.74 112.076 271.956 111.788C272.172 111.5 272.424 111.188 272.712 110.852C273 110.516 273.288 110.216 273.576 109.952C273.888 109.688 274.128 109.556 274.296 109.556C274.464 109.556 274.548 109.7 274.548 109.988C274.548 110.156 274.428 110.42 274.188 110.78C273.972 111.116 273.708 111.476 273.396 111.86C273.084 112.244 272.772 112.604 272.46 112.94C272.172 113.276 271.956 113.516 271.812 113.66C271.596 113.876 271.344 114.128 271.056 114.416C270.792 114.704 270.492 114.98 270.156 115.244C269.82 115.484 269.46 115.7 269.076 115.892C268.716 116.06 268.32 116.144 267.888 116.144ZM266.736 101.852C266.736 101.444 266.844 101.096 267.06 100.808C267.276 100.496 267.516 100.34 267.78 100.34C268.068 100.34 268.308 100.52 268.5 100.88C268.836 101.552 268.872 102.08 268.608 102.464C268.368 102.824 268.068 103.004 267.708 103.004C267.444 103.004 267.216 102.92 267.024 102.752C266.832 102.56 266.736 102.26 266.736 101.852ZM262.976 99.944C262.976 99.68 263.192 99.404 263.624 99.116C264.032 98.828 264.56 98.54 265.208 98.252C265.856 97.964 266.576 97.688 267.368 97.424C268.16 97.16 268.94 96.92 269.708 96.704C270.476 96.464 271.184 96.26 271.832 96.092C272.48 95.924 272.972 95.792 273.308 95.696C273.692 95.6 273.98 95.54 274.172 95.516C274.364 95.468 274.508 95.42 274.604 95.372C274.7 95.3 274.76 95.204 274.784 95.084C274.832 94.94 274.892 94.712 274.964 94.4C275.156 93.416 275.372 92.744 275.612 92.384C275.876 92 276.128 91.808 276.368 91.808C276.56 91.808 276.716 91.916 276.836 92.132C276.98 92.324 277.052 92.564 277.052 92.852C277.052 93.068 277.04 93.164 277.016 93.14C276.992 93.092 276.992 93.164 277.016 93.356C277.016 93.404 277.016 93.464 277.016 93.536C277.04 93.608 277.052 93.704 277.052 93.824C277.052 94.064 277.016 94.208 276.944 94.256C276.872 94.28 276.788 94.304 276.692 94.328C276.596 94.328 276.512 94.364 276.44 94.436C276.368 94.508 276.332 94.688 276.332 94.976C276.62 94.976 276.932 94.94 277.268 94.868C277.628 94.796 277.94 94.736 278.204 94.688C279.26 94.496 280.316 94.328 281.372 94.184C282.428 94.016 283.508 93.932 284.612 93.932C285.044 93.932 285.38 94.004 285.62 94.148C285.884 94.292 286.052 94.46 286.124 94.652C286.196 94.82 286.172 94.988 286.052 95.156C285.932 95.3 285.704 95.372 285.368 95.372C285.32 95.18 285.284 95.096 285.26 95.12C285.26 95.12 285.152 95.096 284.936 95.048C284.84 95.024 284.648 95.012 284.36 95.012C283.856 95.012 283.184 95.072 282.344 95.192C281.504 95.288 280.652 95.408 279.788 95.552C278.924 95.696 278.132 95.84 277.412 95.984C276.716 96.104 276.26 96.188 276.044 96.236L275.324 103.616C275.3 103.784 275.288 103.964 275.288 104.156C275.312 104.348 275.324 104.54 275.324 104.732C275.324 104.972 275.3 105.128 275.252 105.2C275.228 105.272 275.216 105.44 275.216 105.704C275.216 106.232 275.228 106.844 275.252 107.54C275.276 108.212 275.264 108.74 275.216 109.124C275.192 109.388 275.168 109.976 275.144 110.888C275.12 111.8 275.108 112.796 275.108 113.876C275.108 114.932 275.108 115.952 275.108 116.936C275.108 117.92 275.12 118.604 275.144 118.988C275.144 119.204 275.168 119.492 275.216 119.852C275.264 120.236 275.288 120.608 275.288 120.968C275.312 121.328 275.288 121.64 275.216 121.904C275.144 122.168 274.988 122.3 274.748 122.3C274.508 122.3 274.316 122.228 274.172 122.084C274.052 121.94 273.956 121.76 273.884 121.544C273.836 121.328 273.8 121.088 273.776 120.824C273.776 120.584 273.776 120.356 273.776 120.14C273.728 119.492 273.692 118.748 273.668 117.908C273.644 117.092 273.632 116.252 273.632 115.388C273.632 114.524 273.632 113.684 273.632 112.868C273.656 112.028 273.668 111.284 273.668 110.636L273.776 108.944C273.776 108.608 273.776 108.092 273.776 107.396C273.776 106.676 273.788 105.944 273.812 105.2C273.836 104.432 273.86 103.724 273.884 103.076C273.908 102.404 273.944 101.936 273.992 101.672C274.04 101.432 274.064 101.144 274.064 100.808C274.088 100.472 274.112 100.184 274.136 99.944L274.46 96.596C274.34 96.644 274.124 96.704 273.812 96.776C273.5 96.824 273.248 96.872 273.056 96.92C271.856 97.208 270.728 97.52 269.672 97.856C268.616 98.168 267.524 98.54 266.396 98.972C266.18 99.068 265.988 99.176 265.82 99.296C265.628 99.392 265.424 99.488 265.208 99.584C264.992 99.68 264.836 99.752 264.74 99.8C264.644 99.824 264.584 99.86 264.56 99.908C264.536 99.956 264.512 100.028 264.488 100.124C264.464 100.196 264.416 100.316 264.344 100.484C264.104 100.532 263.9 100.556 263.732 100.556C263.54 100.556 263.372 100.52 263.228 100.448C263.06 100.376 262.976 100.208 262.976 99.944ZM277.275 108.944C277.371 107.696 277.491 106.472 277.635 105.272C277.779 104.048 277.983 102.824 278.247 101.6C278.319 101.264 278.391 100.988 278.463 100.772C278.535 100.532 278.607 100.268 278.679 99.98C278.847 99.5 278.967 99.188 279.039 99.044C279.135 98.876 279.279 98.792 279.471 98.792C279.543 98.792 279.627 98.804 279.723 98.828C279.819 98.828 279.927 98.84 280.047 98.864C280.167 99.416 280.143 100.076 279.975 100.844C279.807 101.588 279.675 102.272 279.579 102.896C279.315 104.552 279.099 106.376 278.931 108.368C278.763 110.36 278.679 112.256 278.679 114.056L278.787 118.088L279.075 117.404C279.315 116.684 279.519 116.06 279.687 115.532C279.879 115.004 280.071 114.5 280.263 114.02C280.479 113.516 280.707 113 280.947 112.472C281.211 111.944 281.535 111.332 281.919 110.636C282.183 110.156 282.435 109.748 282.675 109.412C282.915 109.076 283.311 108.908 283.863 108.908C284.055 108.908 284.199 109.028 284.295 109.268C284.415 109.508 284.499 109.784 284.547 110.096C284.595 110.408 284.619 110.72 284.619 111.032C284.643 111.344 284.655 111.584 284.655 111.752C284.655 112.448 284.667 113.024 284.691 113.48C284.739 113.936 284.883 114.392 285.123 114.848C285.387 114.776 285.639 114.644 285.879 114.452C286.119 114.26 286.335 114.044 286.527 113.804C286.719 113.54 286.899 113.276 287.067 113.012C287.259 112.724 287.427 112.472 287.571 112.256C287.739 111.992 287.895 111.728 288.039 111.464C288.183 111.2 288.327 110.924 288.471 110.636C288.687 110.252 288.855 109.988 288.975 109.844C289.119 109.7 289.263 109.628 289.407 109.628C289.479 109.628 289.611 109.652 289.803 109.7C289.923 110.132 289.899 110.48 289.731 110.744C289.563 111.008 289.383 111.32 289.191 111.68C289.023 111.992 288.795 112.4 288.507 112.904C288.219 113.384 287.895 113.864 287.535 114.344C287.175 114.8 286.791 115.196 286.383 115.532C285.975 115.844 285.555 116 285.123 116C284.331 116 283.815 115.292 283.575 113.876C283.503 113.468 283.455 112.928 283.431 112.256C283.407 111.56 283.395 110.96 283.395 110.456C283.227 110.576 283.023 110.864 282.783 111.32C282.543 111.752 282.303 112.232 282.063 112.76C281.823 113.264 281.595 113.78 281.379 114.308C281.187 114.812 281.031 115.196 280.911 115.46C280.623 116.228 280.383 116.972 280.191 117.692C280.023 118.436 279.831 119.144 279.615 119.816C279.495 120.2 279.351 120.44 279.183 120.536C279.039 120.656 278.799 120.716 278.463 120.716C278.151 120.716 277.899 120.368 277.707 119.672C277.515 118.976 277.371 118.172 277.275 117.26C277.179 116.372 277.119 115.508 277.095 114.668C277.071 113.828 277.059 113.276 277.059 113.012L277.275 108.944ZM288.748 115.856C288.58 115.856 288.46 115.76 288.388 115.568C288.316 115.376 288.268 115.172 288.244 114.956C288.244 114.716 288.256 114.488 288.28 114.272C288.304 114.056 288.316 113.912 288.316 113.84C288.292 113.408 288.28 112.976 288.28 112.544C288.304 112.088 288.304 111.632 288.28 111.176C288.28 111.008 288.28 110.684 288.28 110.204C288.304 109.724 288.34 109.232 288.388 108.728C288.46 108.224 288.556 107.78 288.676 107.396C288.796 106.988 288.952 106.784 289.144 106.784C289.624 106.784 289.864 106.94 289.864 107.252C289.888 107.564 289.876 107.972 289.828 108.476C289.804 108.668 289.792 108.86 289.792 109.052C289.792 109.244 289.792 109.436 289.792 109.628C289.792 109.892 289.78 110.06 289.756 110.132C289.732 110.18 289.72 110.324 289.72 110.564C289.984 110.372 290.224 110.156 290.44 109.916C290.656 109.652 291.04 109.52 291.592 109.52C291.76 109.52 291.976 109.52 292.24 109.52C292.528 109.496 292.828 109.484 293.14 109.484C293.668 109.484 294.16 109.52 294.616 109.592C295.072 109.64 295.3 109.784 295.3 110.024C295.3 110.288 295.168 110.456 294.904 110.528C294.664 110.576 294.364 110.6 294.004 110.6C293.764 110.6 293.512 110.6 293.248 110.6C293.008 110.576 292.792 110.564 292.6 110.564C292.264 110.564 291.988 110.576 291.772 110.6C291.556 110.6 291.376 110.636 291.232 110.708C291.088 110.756 290.956 110.84 290.836 110.96C290.74 111.08 290.62 111.26 290.476 111.5C290.284 111.812 290.116 112.148 289.972 112.508C289.828 112.868 289.72 113.264 289.648 113.696C289.6 113.936 289.576 114.188 289.576 114.452C289.576 114.692 289.564 114.92 289.54 115.136C289.516 115.352 289.444 115.532 289.324 115.676C289.228 115.796 289.036 115.856 288.748 115.856ZM294.115 112.364C294.115 111.86 294.235 111.236 294.475 110.492C294.739 109.724 295.075 108.992 295.483 108.296C295.915 107.576 296.407 106.976 296.959 106.496C297.535 105.992 298.135 105.74 298.759 105.74C299.191 105.74 299.563 105.848 299.875 106.064C300.187 106.28 300.427 106.52 300.595 106.784C300.763 107.024 300.835 107.252 300.811 107.468C300.811 107.684 300.691 107.792 300.451 107.792C300.187 107.792 299.935 107.66 299.695 107.396C299.455 107.108 299.167 106.964 298.831 106.964C298.567 106.964 298.243 107.12 297.859 107.432C297.499 107.744 297.055 108.356 296.527 109.268C296.287 109.652 296.059 110.156 295.843 110.78C295.651 111.38 295.555 111.98 295.555 112.58C295.603 112.532 295.615 112.52 295.591 112.544C295.591 112.568 295.639 112.52 295.735 112.4L296.023 111.968C296.215 111.68 296.431 111.308 296.671 110.852C296.935 110.372 297.187 109.916 297.427 109.484C297.691 109.028 297.931 108.632 298.147 108.296C298.387 107.96 298.567 107.792 298.687 107.792C298.999 107.792 299.203 107.888 299.299 108.08C299.419 108.248 299.491 108.476 299.515 108.764C299.539 109.052 299.551 109.376 299.551 109.736C299.551 110.096 299.587 110.444 299.659 110.78C299.803 111.428 300.019 111.908 300.307 112.22C300.619 112.508 300.967 112.652 301.351 112.652C302.023 112.652 302.767 112.244 303.583 111.428C303.919 111.116 304.147 110.864 304.267 110.672C304.411 110.456 304.615 110.216 304.879 109.952C305.047 109.712 305.263 109.592 305.527 109.592C305.671 109.592 305.779 109.652 305.851 109.772C305.923 109.868 305.935 110.036 305.887 110.276C305.839 110.492 305.695 110.768 305.455 111.104C305.239 111.44 304.903 111.824 304.447 112.256L303.367 113.12C302.671 113.6 301.999 113.84 301.351 113.84C300.895 113.84 300.487 113.732 300.127 113.516C299.767 113.3 299.455 113.036 299.191 112.724C298.951 112.388 298.759 112.016 298.615 111.608C298.471 111.2 298.399 110.804 298.399 110.42C298.231 110.54 298.039 110.816 297.823 111.248C297.607 111.656 297.367 112.088 297.103 112.544C296.863 112.976 296.611 113.372 296.347 113.732C296.083 114.092 295.819 114.272 295.555 114.272C294.883 114.272 294.475 114.116 294.331 113.804C294.187 113.492 294.115 113.012 294.115 112.364ZM305.565 114.128C305.181 114.128 304.917 113.924 304.773 113.516C304.629 113.108 304.557 112.604 304.557 112.004C304.581 111.38 304.665 110.708 304.809 109.988C304.977 109.268 305.169 108.608 305.385 108.008C305.625 107.384 305.877 106.868 306.141 106.46C306.405 106.052 306.645 105.848 306.861 105.848C307.269 105.848 307.449 106.04 307.401 106.424C307.377 106.808 307.269 107.3 307.077 107.9C306.885 108.5 306.669 109.172 306.429 109.916C306.213 110.636 306.105 111.344 306.105 112.04L307.833 109.412C307.881 109.316 307.977 109.148 308.121 108.908C308.289 108.644 308.469 108.392 308.661 108.152C308.877 107.888 309.093 107.66 309.309 107.468C309.549 107.276 309.777 107.18 309.993 107.18C310.281 107.18 310.509 107.372 310.677 107.756L310.893 109.772C310.893 109.988 310.905 110.324 310.929 110.78C310.953 111.236 311.001 111.692 311.073 112.148C311.169 112.604 311.313 113.012 311.505 113.372C311.697 113.708 311.961 113.876 312.297 113.876C312.657 113.876 313.029 113.66 313.413 113.228C313.821 112.772 314.205 112.28 314.565 111.752C314.949 111.2 315.285 110.708 315.573 110.276C315.885 109.82 316.125 109.592 316.293 109.592C316.653 109.592 316.809 109.736 316.761 110.024C316.737 110.288 316.629 110.6 316.437 110.96C316.245 111.32 316.029 111.656 315.789 111.968C315.549 112.28 315.405 112.472 315.357 112.544C315.237 112.712 315.069 112.916 314.853 113.156C314.661 113.396 314.445 113.636 314.205 113.876C313.989 114.092 313.761 114.296 313.521 114.488C313.305 114.68 313.089 114.8 312.873 114.848C312.633 114.92 312.405 114.956 312.189 114.956C311.637 114.956 311.193 114.752 310.857 114.344C310.545 113.936 310.305 113.492 310.137 113.012C309.969 112.46 309.849 111.968 309.777 111.536C309.729 111.08 309.705 110.672 309.705 110.312C309.705 109.952 309.705 109.64 309.705 109.376C309.705 109.112 309.669 108.896 309.597 108.728C309.309 108.92 308.997 109.316 308.661 109.916C308.349 110.492 308.013 111.092 307.653 111.716C307.317 112.34 306.969 112.904 306.609 113.408C306.273 113.888 305.925 114.128 305.565 114.128Z" fill="white"/>
</g>
<g id="Jishnu" style="mix-blend-mode:hard-light">
<path d="M3.76291 130.76C4.19491 130.76 4.66291 130.604 5.16691 130.292C5.69491 129.98 6.19891 129.596 6.67891 129.14C7.18291 128.684 7.63891 128.204 8.04691 127.7C8.45491 127.196 8.75491 126.74 8.94691 126.332C9.33091 125.828 9.76291 125.024 10.2429 123.92C10.7469 122.84 11.2149 121.7 11.6469 120.5C12.1029 119.3 12.4749 118.16 12.7629 117.08C13.0749 116 13.2309 115.232 13.2309 114.776C13.0389 114.896 12.8589 115.004 12.6909 115.1C12.5229 115.196 12.3429 115.304 12.1509 115.424L10.0989 116.972C9.90691 117.116 9.73891 117.248 9.59491 117.368C9.45091 117.488 9.29491 117.644 9.12691 117.836C8.95891 118.004 8.80291 118.136 8.65891 118.232C8.51491 118.328 8.35891 118.472 8.19091 118.664L5.74291 121.436C5.21491 122.084 4.73491 122.792 4.30291 123.56C3.84691 124.328 3.43891 125.108 3.07891 125.9C2.93491 126.212 2.77891 126.644 2.61091 127.196C2.44291 127.748 2.35891 128.288 2.35891 128.816C2.33491 129.344 2.41891 129.8 2.61091 130.184C2.80291 130.568 3.18691 130.76 3.76291 130.76ZM5.41891 101.564C5.41891 100.844 5.50291 100.112 5.67091 99.368C5.83891 98.6 6.05491 97.868 6.31891 97.172C6.58291 96.476 6.87091 95.816 7.18291 95.192C7.49491 94.544 7.78291 93.98 8.04691 93.5C8.31091 93.02 8.63491 92.468 9.01891 91.844C9.42691 91.22 9.87091 90.632 10.3509 90.08C10.8549 89.504 11.3829 89.024 11.9349 88.64C12.5109 88.256 13.0989 88.064 13.6989 88.064C14.5629 88.064 15.2349 88.508 15.7149 89.396C16.1949 90.26 16.5429 91.376 16.7589 92.744C16.9749 94.088 17.0949 95.576 17.1189 97.208C17.1429 98.84 17.1069 100.424 17.0109 101.96C16.9149 103.496 16.7949 104.888 16.6509 106.136C16.5309 107.36 16.4229 108.248 16.3269 108.8L15.7869 112.184C16.0509 112.04 16.3749 111.908 16.7589 111.788C17.1429 111.644 17.4909 111.512 17.8029 111.392C18.1149 111.272 18.4269 111.164 18.7389 111.068C19.0749 110.948 19.4229 110.816 19.7829 110.672C20.5509 110.408 21.2709 110.168 21.9429 109.952C22.6149 109.736 23.3589 109.628 24.1749 109.628C24.2229 109.748 24.2589 109.844 24.2829 109.916C24.3069 109.964 24.3189 110.048 24.3189 110.168C24.3189 110.24 24.1389 110.348 23.7789 110.492C23.4189 110.636 23.0109 110.792 22.5549 110.96C22.0989 111.104 21.6669 111.236 21.2589 111.356C20.8509 111.476 20.5869 111.548 20.4669 111.572C19.8429 111.764 19.1829 111.98 18.4869 112.22C17.7909 112.46 17.1669 112.724 16.6149 113.012C16.3749 113.108 16.1829 113.18 16.0389 113.228C15.8949 113.276 15.7749 113.336 15.6789 113.408C15.6069 113.456 15.5349 113.552 15.4629 113.696C15.3909 113.84 15.3189 114.056 15.2469 114.344C14.6709 116.816 13.9389 119.228 13.0509 121.58C12.1869 123.932 10.9869 126.128 9.45091 128.168C9.16291 128.528 8.80291 128.924 8.37091 129.356C7.96291 129.788 7.50691 130.184 7.00291 130.544C6.52291 130.904 6.01891 131.204 5.49091 131.444C4.96291 131.708 4.44691 131.84 3.94291 131.84C3.17491 131.84 2.53891 131.624 2.03491 131.192C1.53091 130.784 1.27891 130.22 1.27891 129.5V128.492C1.27891 127.82 1.42291 127.088 1.71091 126.296C1.99891 125.504 2.35891 124.712 2.79091 123.92C3.22291 123.128 3.69091 122.372 4.19491 121.652C4.69891 120.956 5.16691 120.356 5.59891 119.852C6.51091 118.772 7.42291 117.812 8.33491 116.972C9.27091 116.156 10.3149 115.34 11.4669 114.524L13.5549 113.3C13.6269 113.204 13.7109 112.88 13.8069 112.328C13.9269 111.776 14.0349 111.176 14.1309 110.528C14.2509 109.856 14.3469 109.22 14.4189 108.62C14.5149 108.02 14.5749 107.612 14.5989 107.396C14.6469 106.916 14.6949 106.424 14.7429 105.92C14.7909 105.392 14.8509 104.852 14.9229 104.3L15.3549 97.856C15.3549 97.304 15.3189 96.776 15.2469 96.272C15.1989 95.744 15.1869 95.132 15.2109 94.436C15.2349 93.74 15.0909 92.804 14.7789 91.628C14.5869 90.86 14.3709 90.32 14.1309 90.008C13.8909 89.672 13.6269 89.504 13.3389 89.504C12.9789 89.504 12.5829 89.708 12.1509 90.116C11.7189 90.5 11.2509 91.028 10.7469 91.7C10.2669 92.324 9.77491 93.044 9.27091 93.86C8.76691 94.652 8.31091 95.492 7.90291 96.38C7.49491 97.268 7.15891 98.18 6.89491 99.116C6.63091 100.028 6.49891 100.916 6.49891 101.78C6.49891 102.428 6.57091 103.052 6.71491 103.652C6.85891 104.228 7.17091 104.684 7.65091 105.02C7.91491 105.26 8.13091 105.38 8.29891 105.38C8.46691 105.38 8.74291 105.416 9.12691 105.488C9.46291 105.56 9.61891 105.728 9.59491 105.992C9.59491 106.256 9.47491 106.388 9.23491 106.388C8.53891 106.388 7.95091 106.316 7.47091 106.172C6.99091 106.028 6.52291 105.608 6.06691 104.912C5.80291 104.48 5.62291 103.976 5.52691 103.4C5.45491 102.824 5.41891 102.212 5.41891 101.564ZM25.5857 116.144C25.1057 116.144 24.6737 115.988 24.2897 115.676C23.9297 115.364 23.6537 115.04 23.4617 114.704C23.0297 113.888 22.7777 112.928 22.7057 111.824C22.6577 110.696 22.7297 109.676 22.9217 108.764C22.9457 108.572 22.9817 108.344 23.0297 108.08C23.1017 107.816 23.1857 107.564 23.2817 107.324C23.3777 107.06 23.4977 106.844 23.6417 106.676C23.7857 106.484 23.9417 106.388 24.1097 106.388C24.5177 106.388 24.7577 106.496 24.8297 106.712C24.9017 106.904 24.9017 107.216 24.8297 107.648C24.7577 108.08 24.6497 108.632 24.5057 109.304C24.3857 109.976 24.3257 110.768 24.3257 111.68C24.3257 111.944 24.3497 112.268 24.3977 112.652C24.4457 113.012 24.5177 113.36 24.6137 113.696C24.7337 114.032 24.8777 114.32 25.0457 114.56C25.2377 114.776 25.4537 114.884 25.6937 114.884C25.9817 114.884 26.3057 114.788 26.6657 114.596C27.0257 114.38 27.3737 114.128 27.7097 113.84C28.0457 113.552 28.3457 113.264 28.6097 112.976C28.8977 112.688 29.1137 112.46 29.2577 112.292C29.3057 112.244 29.4377 112.076 29.6537 111.788C29.8697 111.5 30.1217 111.188 30.4097 110.852C30.6977 110.516 30.9857 110.216 31.2737 109.952C31.5857 109.688 31.8257 109.556 31.9937 109.556C32.1617 109.556 32.2457 109.7 32.2457 109.988C32.2457 110.156 32.1257 110.42 31.8857 110.78C31.6697 111.116 31.4057 111.476 31.0937 111.86C30.7817 112.244 30.4697 112.604 30.1577 112.94C29.8697 113.276 29.6537 113.516 29.5097 113.66C29.2937 113.876 29.0417 114.128 28.7537 114.416C28.4897 114.704 28.1897 114.98 27.8537 115.244C27.5177 115.484 27.1577 115.7 26.7737 115.892C26.4137 116.06 26.0177 116.144 25.5857 116.144ZM24.4337 101.852C24.4337 101.444 24.5417 101.096 24.7577 100.808C24.9737 100.496 25.2137 100.34 25.4777 100.34C25.7657 100.34 26.0057 100.52 26.1977 100.88C26.5337 101.552 26.5697 102.08 26.3057 102.464C26.0657 102.824 25.7657 103.004 25.4057 103.004C25.1417 103.004 24.9137 102.92 24.7217 102.752C24.5297 102.56 24.4337 102.26 24.4337 101.852ZM31.2211 121.94C31.2211 122.444 31.3771 122.696 31.6891 122.696C31.8571 122.696 32.0371 122.636 32.2291 122.516C32.4211 122.42 32.5771 122.312 32.6971 122.192C33.1771 121.832 33.5971 121.28 33.9571 120.536C34.3411 119.816 34.6171 119.156 34.7851 118.556C34.9051 118.148 34.9651 117.728 34.9651 117.296C34.9891 116.888 35.0011 116.432 35.0011 115.928C34.7131 116.096 34.3771 116.384 33.9931 116.792C33.6331 117.224 33.3451 117.572 33.1291 117.836C32.6971 118.364 32.2651 119 31.8331 119.744C31.4251 120.488 31.2211 121.22 31.2211 121.94ZM30.8971 110.168C30.8971 109.712 30.9931 109.28 31.1851 108.872C31.4011 108.464 31.6531 108.116 31.9411 107.828C32.2531 107.516 32.5771 107.276 32.9131 107.108C33.2491 106.94 33.5491 106.856 33.8131 106.856C34.0771 106.856 34.2691 106.952 34.3891 107.144C34.5331 107.336 34.5451 107.66 34.4251 108.116C34.2091 108.164 34.0411 108.2 33.9211 108.224C33.8251 108.248 33.7411 108.272 33.6691 108.296C33.5971 108.32 33.5251 108.368 33.4531 108.44C33.3811 108.512 33.2731 108.62 33.1291 108.764C32.6491 109.292 32.4331 109.712 32.4811 110.024C32.5291 110.336 32.7211 110.648 33.0571 110.96C33.3931 111.248 33.8131 111.596 34.3171 112.004C34.8451 112.388 35.3371 112.928 35.7931 113.624C36.3211 113.264 36.8611 112.844 37.4131 112.364L40.7611 110.024C41.3131 109.64 41.7811 109.448 42.1651 109.448C42.4531 109.448 42.5731 109.568 42.5251 109.808C42.4771 110.048 42.2491 110.288 41.8411 110.528L39.3931 112.22C39.2971 112.268 39.0811 112.412 38.7451 112.652C38.4331 112.868 38.0971 113.12 37.7371 113.408C37.4011 113.672 37.0891 113.924 36.8011 114.164C36.5371 114.404 36.3931 114.56 36.3691 114.632C36.3451 114.752 36.3811 114.98 36.4771 115.316C36.5971 115.652 36.6691 116.084 36.6931 116.612C36.7171 117.164 36.6331 117.824 36.4411 118.592C36.2731 119.384 35.8891 120.296 35.2891 121.328C34.7611 122.216 34.1851 122.864 33.5611 123.272C32.9371 123.704 32.3491 123.92 31.7971 123.92C31.2931 123.92 30.8851 123.752 30.5731 123.416C30.2371 123.08 30.0691 122.588 30.0691 121.94C30.0691 121.124 30.2851 120.332 30.7171 119.564C31.1251 118.796 31.5811 118.088 32.0851 117.44C32.6131 116.792 33.1171 116.24 33.5971 115.784C34.0771 115.304 34.3891 114.956 34.5331 114.74C34.2451 114.236 33.8971 113.804 33.4891 113.444C33.0811 113.06 32.6851 112.712 32.3011 112.4C31.9171 112.064 31.5811 111.728 31.2931 111.392C31.0291 111.056 30.8971 110.648 30.8971 110.168ZM41.1953 108.944C41.2913 107.696 41.4113 106.472 41.5553 105.272C41.6993 104.048 41.9033 102.824 42.1673 101.6C42.2393 101.264 42.3113 100.988 42.3833 100.772C42.4553 100.532 42.5273 100.268 42.5993 99.98C42.7673 99.5 42.8873 99.188 42.9593 99.044C43.0553 98.876 43.1993 98.792 43.3913 98.792C43.4633 98.792 43.5473 98.804 43.6433 98.828C43.7393 98.828 43.8473 98.84 43.9673 98.864C44.0873 99.416 44.0633 100.076 43.8953 100.844C43.7273 101.588 43.5953 102.272 43.4993 102.896C43.2353 104.552 43.0193 106.376 42.8513 108.368C42.6833 110.36 42.5993 112.256 42.5993 114.056L42.7073 118.088L42.9953 117.404C43.2353 116.684 43.4393 116.06 43.6073 115.532C43.7993 115.004 43.9913 114.5 44.1833 114.02C44.3993 113.516 44.6273 113 44.8673 112.472C45.1313 111.944 45.4553 111.332 45.8393 110.636C46.1033 110.156 46.3553 109.748 46.5953 109.412C46.8353 109.076 47.2313 108.908 47.7833 108.908C47.9753 108.908 48.1193 109.028 48.2153 109.268C48.3353 109.508 48.4193 109.784 48.4673 110.096C48.5153 110.408 48.5393 110.72 48.5393 111.032C48.5633 111.344 48.5753 111.584 48.5753 111.752C48.5753 112.448 48.5873 113.024 48.6113 113.48C48.6593 113.936 48.8033 114.392 49.0433 114.848C49.3073 114.776 49.5593 114.644 49.7993 114.452C50.0393 114.26 50.2553 114.044 50.4473 113.804C50.6393 113.54 50.8193 113.276 50.9873 113.012C51.1793 112.724 51.3473 112.472 51.4913 112.256C51.6593 111.992 51.8153 111.728 51.9593 111.464C52.1033 111.2 52.2473 110.924 52.3913 110.636C52.6073 110.252 52.7753 109.988 52.8953 109.844C53.0393 109.7 53.1833 109.628 53.3273 109.628C53.3993 109.628 53.5313 109.652 53.7233 109.7C53.8433 110.132 53.8193 110.48 53.6513 110.744C53.4833 111.008 53.3033 111.32 53.1113 111.68C52.9433 111.992 52.7153 112.4 52.4273 112.904C52.1393 113.384 51.8153 113.864 51.4553 114.344C51.0953 114.8 50.7113 115.196 50.3033 115.532C49.8953 115.844 49.4753 116 49.0433 116C48.2513 116 47.7353 115.292 47.4953 113.876C47.4233 113.468 47.3753 112.928 47.3513 112.256C47.3273 111.56 47.3153 110.96 47.3153 110.456C47.1473 110.576 46.9433 110.864 46.7033 111.32C46.4633 111.752 46.2233 112.232 45.9833 112.76C45.7433 113.264 45.5153 113.78 45.2993 114.308C45.1073 114.812 44.9513 115.196 44.8313 115.46C44.5433 116.228 44.3033 116.972 44.1113 117.692C43.9433 118.436 43.7513 119.144 43.5353 119.816C43.4153 120.2 43.2713 120.44 43.1033 120.536C42.9593 120.656 42.7193 120.716 42.3833 120.716C42.0713 120.716 41.8193 120.368 41.6273 119.672C41.4353 118.976 41.2913 118.172 41.1953 117.26C41.0993 116.372 41.0393 115.508 41.0153 114.668C40.9913 113.828 40.9793 113.276 40.9793 113.012L41.1953 108.944ZM53.1721 114.128C52.7881 114.128 52.5241 113.924 52.3801 113.516C52.2361 113.108 52.1641 112.604 52.1641 112.004C52.1881 111.38 52.2721 110.708 52.4161 109.988C52.5841 109.268 52.7761 108.608 52.9921 108.008C53.2321 107.384 53.4841 106.868 53.7481 106.46C54.0121 106.052 54.2521 105.848 54.4681 105.848C54.8761 105.848 55.0561 106.04 55.0081 106.424C54.9841 106.808 54.8761 107.3 54.6841 107.9C54.4921 108.5 54.2761 109.172 54.0361 109.916C53.8201 110.636 53.7121 111.344 53.7121 112.04L55.4401 109.412C55.4881 109.316 55.5841 109.148 55.7281 108.908C55.8961 108.644 56.0761 108.392 56.2681 108.152C56.4841 107.888 56.7001 107.66 56.9161 107.468C57.1561 107.276 57.3841 107.18 57.6001 107.18C57.8881 107.18 58.1161 107.372 58.2841 107.756L58.5001 109.772C58.5001 109.988 58.5121 110.324 58.5361 110.78C58.5601 111.236 58.6081 111.692 58.6801 112.148C58.7761 112.604 58.9201 113.012 59.1121 113.372C59.3041 113.708 59.5681 113.876 59.9041 113.876C60.2641 113.876 60.6361 113.66 61.0201 113.228C61.4281 112.772 61.8121 112.28 62.1721 111.752C62.5561 111.2 62.8921 110.708 63.1801 110.276C63.4921 109.82 63.7321 109.592 63.9001 109.592C64.2601 109.592 64.4161 109.736 64.3681 110.024C64.3441 110.288 64.2361 110.6 64.0441 110.96C63.8521 111.32 63.6361 111.656 63.3961 111.968C63.1561 112.28 63.0121 112.472 62.9641 112.544C62.8441 112.712 62.6761 112.916 62.4601 113.156C62.2681 113.396 62.0521 113.636 61.8121 113.876C61.5961 114.092 61.3681 114.296 61.1281 114.488C60.9121 114.68 60.6961 114.8 60.4801 114.848C60.2401 114.92 60.0121 114.956 59.7961 114.956C59.2441 114.956 58.8001 114.752 58.4641 114.344C58.1521 113.936 57.9121 113.492 57.7441 113.012C57.5761 112.46 57.4561 111.968 57.3841 111.536C57.3361 111.08 57.3121 110.672 57.3121 110.312C57.3121 109.952 57.3121 109.64 57.3121 109.376C57.3121 109.112 57.2761 108.896 57.2041 108.728C56.9161 108.92 56.6041 109.316 56.2681 109.916C55.9561 110.492 55.6201 111.092 55.2601 111.716C54.9241 112.34 54.5761 112.904 54.2161 113.408C53.8801 113.888 53.5321 114.128 53.1721 114.128ZM62.993 111.608C62.993 111.224 63.029 110.792 63.101 110.312C63.197 109.832 63.317 109.364 63.461 108.908C63.629 108.428 63.809 107.972 64.001 107.54C64.217 107.108 64.433 106.748 64.649 106.46C64.913 106.172 65.177 106.028 65.441 106.028C65.657 106.028 65.873 106.088 66.089 106.208C66.113 106.328 66.137 106.412 66.161 106.46C66.209 106.508 66.233 106.616 66.233 106.784C66.233 106.808 66.113 107.048 65.873 107.504C65.657 107.936 65.429 108.476 65.189 109.124C64.949 109.748 64.745 110.42 64.577 111.14C64.433 111.86 64.433 112.52 64.577 113.12C64.865 113.024 65.105 112.844 65.297 112.58C65.513 112.292 65.717 112.028 65.909 111.788L68.069 108.62C68.309 108.284 68.513 107.996 68.681 107.756C68.849 107.492 69.101 107.36 69.437 107.36C69.677 107.36 69.833 107.492 69.905 107.756C70.001 107.996 70.049 108.296 70.049 108.656C70.073 109.016 70.073 109.388 70.049 109.772C70.025 110.132 70.025 110.432 70.049 110.672C70.169 111.536 70.349 112.148 70.589 112.508C70.853 112.844 71.153 113.012 71.489 113.012C71.897 113.012 72.329 112.844 72.785 112.508C73.265 112.148 73.721 111.764 74.153 111.356C74.585 110.924 74.981 110.54 75.341 110.204C75.701 109.844 75.965 109.664 76.133 109.664C76.277 109.664 76.409 109.7 76.529 109.772C76.649 109.82 76.709 109.94 76.709 110.132C76.709 110.276 76.613 110.468 76.421 110.708C76.253 110.924 76.049 111.152 75.809 111.392C75.593 111.632 75.365 111.86 75.125 112.076C74.909 112.268 74.741 112.412 74.621 112.508C74.141 112.964 73.613 113.36 73.037 113.696C72.485 114.008 71.933 114.164 71.381 114.164C70.781 114.164 70.313 114.008 69.977 113.696C69.641 113.36 69.389 112.952 69.221 112.472C69.053 111.968 68.945 111.452 68.897 110.924C68.873 110.372 68.861 109.88 68.861 109.448C68.717 109.544 68.537 109.76 68.321 110.096C68.129 110.408 67.973 110.66 67.853 110.852C67.709 111.092 67.505 111.428 67.241 111.86C66.977 112.292 66.677 112.712 66.341 113.12C66.029 113.504 65.705 113.852 65.369 114.164C65.057 114.452 64.757 114.596 64.469 114.596C64.061 114.596 63.749 114.5 63.533 114.308C63.341 114.116 63.197 113.876 63.101 113.588C63.029 113.276 62.993 112.952 62.993 112.616C62.993 112.256 62.993 111.92 62.993 111.608Z" fill="white"/>
</g>
</g>
</svg>
